<svg width="688" height="687" xmlns="http://www.w3.org/2000/svg" xmlns:xlink="http://www.w3.org/1999/xlink" xml:space="preserve" overflow="hidden"><g transform="translate(-565 -1574)"><path d="M111.715 7.3543 575.277 7.3543 575.277 610.719 111.715 610.719Z" fill="#FFFFFF" transform="matrix(1.00146 0 0 1 565 1574)"/><path d="M582.632 618.081 104.361 618.081 104.361 0 582.632 0ZM119.077 603.388 567.915 603.388 567.915 14.716 119.076 14.716Z" fill="#684C4B" transform="matrix(1.00146 0 0 1 565 1574)"/><path d="M326.614 128.55C306.413 128.55 290.036 112.173 290.036 91.9717 290.036 71.7701 306.413 55.3934 326.614 55.3934 346.816 55.3934 363.193 71.7701 363.193 91.9717 363.171 112.164 346.807 128.529 326.614 128.55ZM326.614 66.6838C312.627 66.6838 301.288 78.0227 301.288 92.0099 301.288 105.997 312.627 117.336 326.614 117.336 340.602 117.336 351.94 105.997 351.94 92.0099 351.94 92.0075 351.94 92.005 351.94 92.0026 351.94 78.0115 340.605 66.6659 326.614 66.653Z" fill="#684C4B" transform="matrix(1.00146 0 0 1 565 1574)"/><path d="M360.339 128.55C340.786 128.528 324.71 113.13 323.846 93.5959L335.082 93.1008C335.704 107.071 347.533 117.893 361.503 117.271 375.473 116.65 386.295 104.821 385.673 90.8506 385.047 76.8921 372.906 65.9492 359.256 66.6838L358.753 55.4323C378.922 54.2842 396.203 69.7037 397.351 89.8727 398.499 110.042 383.08 127.323 362.911 128.471 362.608 128.488 362.305 128.501 362.002 128.511 361.445 128.535 360.888 128.55 360.339 128.55ZM170.581 183.951 479.617 183.951 479.617 198.667 170.581 198.667ZM170.581 228.1 479.617 228.1 479.617 242.817 170.581 242.817ZM170.581 272.249 479.617 272.249 479.617 286.966 170.581 286.966ZM170.581 316.399 479.617 316.399 479.617 331.115 170.581 331.115ZM170.581 360.548 479.617 360.548 479.617 375.264 170.581 375.264ZM295.673 404.697 479.625 404.697 479.625 419.413 295.673 419.413ZM347.177 448.846 479.624 448.846 479.624 463.562 347.177 463.562ZM376.61 492.995 479.625 492.995 479.625 507.712 376.61 507.712Z" fill="#684C4B" transform="matrix(1.00146 0 0 1 565 1574)"/><path d="M175.986 582.136C174.099 618.436 172.831 631.745 173.426 671.07 173.55 679.274 184.005 682.723 188.986 676.196L189.078 676.072C198.459 663.699 205.782 655.03 214.335 644.149 217.287 640.396 222.723 639.747 226.476 642.699 227.033 643.137 227.535 643.642 227.969 644.203 234.349 652.416 243.544 664.194 251.424 673.954 256.512 680.249 266.682 676.706 266.82 668.61 267.54 627.917 268.259 624.268 268.971 581.27Z" fill="#ED758D" transform="matrix(1.00146 0 0 1 565 1574)"/><path d="M182.196 686.992C180.456 686.99 178.728 686.71 177.077 686.165 170.557 684.078 166.118 678.038 166.072 671.193 165.569 638.079 166.389 622.992 167.766 598.005L168.995 574.844 276.487 573.862 276.364 581.41C275.992 603.542 275.59 615.281 275.258 626.974 274.902 638.009 274.562 649.006 274.214 668.733 274.07 677.586 266.778 684.646 257.926 684.503 253.184 684.426 248.719 682.254 245.732 678.57 237.821 668.772 228.588 656.956 222.192 648.705 221.952 648.383 221.572 648.196 221.171 648.202 220.776 648.196 220.401 648.376 220.158 648.689 216.949 652.772 213.91 656.546 210.878 660.288 205.852 666.537 200.825 672.778 194.986 680.473 191.999 684.553 187.252 686.972 182.196 686.992ZM182.969 589.429 182.466 598.809C181.113 623.478 180.301 638.365 180.796 670.968 180.755 671.542 181.14 672.058 181.701 672.183 182.221 672.417 182.835 672.232 183.139 671.75 189.148 663.815 194.267 657.467 199.379 651.117 202.379 647.39 205.38 643.662 208.558 639.618 211.585 635.749 216.228 633.494 221.14 633.508L221.21 633.508C226.141 633.506 230.795 635.791 233.807 639.695 240.164 647.885 249.32 659.616 257.17 669.329 257.475 669.797 258.077 669.972 258.585 669.739 259.148 669.592 259.527 669.066 259.49 668.486 259.838 648.642 260.185 637.553 260.542 626.502 260.858 616.271 261.183 606.009 261.508 588.702Z" fill="#684C4B" transform="matrix(1.00146 0 0 1 565 1574)"/><path d="M162.501 560.277C175.906 592.909 213.227 608.496 245.859 595.091 278.491 581.686 294.077 544.366 280.672 511.733 280.625 511.618 280.577 511.503 280.529 511.388 267.124 478.756 229.804 463.169 197.172 476.574 164.54 489.98 148.953 527.3 162.358 559.932 162.405 560.047 162.453 560.162 162.501 560.277Z" fill="#EBDD9E" transform="matrix(1.00146 0 0 1 565 1574)"/><path d="M221.504 607.069C182.16 607.069 150.265 575.174 150.265 535.83 150.265 496.486 182.16 464.592 221.504 464.592 260.848 464.592 292.742 496.486 292.742 535.829 292.7 575.156 260.83 607.026 221.504 607.069ZM221.504 479.308C190.287 479.308 164.981 504.614 164.981 535.83 164.981 567.047 190.287 592.353 221.504 592.353 252.72 592.353 278.026 567.047 278.026 535.83 277.992 504.628 252.706 479.342 221.504 479.308Z" fill="#684C4B" transform="matrix(1.00146 0 0 1 565 1574)"/><path d="M242.77 496.661C236.638 494.125 229.956 494.232 224.798 496.986 222.29 498.31 220.179 500.277 218.681 502.685 216.163 499.28 212.799 496.593 208.922 494.89 203.872 492.694 198.273 492.756 193.873 495.076 185.042 499.715 184.407 509.993 184.067 515.514 183.813 519.528 183.533 524.091 184.415 528.854 185.167 532.525 186.356 536.092 187.957 539.48 194.137 553.319 202.922 565.84 213.832 576.36L219.431 581.727 224.489 575.841C226.036 574.017 226.654 573.313 228.124 571.387 231.223 567.505 234.549 563.81 238.084 560.321 246.165 552.008 254.525 543.408 257.959 530.656 260 523.047 260.008 512.313 253.914 504.981 250.926 501.348 247.103 498.493 242.77 496.661ZM243.775 526.821C241.34 535.876 234.651 542.759 227.536 550.02 224.443 553.16 221.35 556.385 218.434 559.888 211.447 551.978 205.698 543.056 201.382 533.425 200.266 531.095 199.417 528.646 198.853 526.124 198.304 523.155 198.505 519.876 198.722 516.388 198.861 514.138 199.186 508.864 201.32 507.951 201.911 507.974 202.492 508.113 203.029 508.361 206.238 509.745 208.705 513.326 211.026 519.961 212.291 523.637 215.737 526.117 219.625 526.148 223.293 526.144 226.578 523.877 227.883 520.449 228.532 518.706 229.077 516.927 229.516 515.12 230.289 512.197 230.807 510.395 231.696 509.916 232.957 509.243 235.076 509.359 237.11 510.201 239.243 511.113 241.124 512.527 242.593 514.323 244.565 516.698 245.051 522.049 243.775 526.821Z" fill="#684C4B" transform="matrix(1.00146 0 0 1 565 1574)"/><g><g><g><path d="M1081.49 2143.66 1099.68 2125.58 1118.73 2144.74 1100.54 2162.82Z" fill="#334A5E"/><path d="M1179.27 2183.78 1144.98 2149.27C1133.98 2138.23 1116.1 2138.17 1105.05 2149.16 1094.01 2160.16 1093.95 2178.04 1104.95 2189.09L1139.23 2223.59C1150.23 2234.64 1168.11 2234.7 1179.16 2223.7 1190.2 2212.71 1190.26 2194.83 1179.27 2183.78Z" fill="#FFD15C"/><path d="M1179.16 2223.7C1168.11 2234.7 1150.23 2234.64 1139.23 2223.59L1179.27 2183.78C1190.26 2194.83 1190.2 2212.71 1179.16 2223.7Z" fill="#F8B64C"/><path d="M1096.85 1986.2C1054.47 1943.54 985.289 1943.32 942.687 1985.7 900.031 2028.09 899.812 2097.27 942.195 2139.87 984.578 2182.52 1053.76 2182.74 1096.36 2140.36 1139.02 2098.03 1139.18 2028.85 1096.85 1986.2Z" fill="#40596B"/><path d="M1080.06 2002.87C1046.87 1969.52 992.727 1969.3 959.367 2002.49 926.008 2035.69 925.844 2089.83 958.984 2123.19 992.18 2156.55 1046.32 2156.71 1079.68 2123.57 1113.04 2090.43 1113.2 2036.29 1080.06 2002.87Z" fill="#FFFFFF"/><path d="M1063.27 2019.55C1039.32 1995.44 1000.16 1995.33 976.047 2019.28 951.93 2043.23 951.82 2082.39 975.773 2106.51 999.727 2130.62 1038.88 2130.73 1063 2106.78 1087.12 2082.83 1087.23 2043.73 1063.27 2019.55Z" fill="#84DBFF"/><path d="M1049.88 2032.84C1033.2 2016.11 1006.02 2016 989.281 2032.68 972.547 2049.36 972.437 2076.54 989.117 2093.27 1005.8 2110.01 1032.98 2110.12 1049.71 2093.44 1066.45 2076.81 1066.55 2049.63 1049.88 2032.84Z" fill="#54C0EB"/><path d="M994.094 2050.67C987.914 2056.8 977.906 2056.74 971.781 2050.62 965.656 2044.44 965.711 2034.43 971.836 2028.3 978.016 2022.18 988.023 2022.23 994.148 2028.36 1000.27 2034.54 1000.27 2044.55 994.094 2050.67Z" fill="#FFFFFF"/></g></g></g></g></svg>