<svg width="900" height="913" xmlns="http://www.w3.org/2000/svg" xmlns:xlink="http://www.w3.org/1999/xlink" xml:space="preserve" overflow="hidden"><defs><filter id="fx0" x="-10%" y="-10%" width="120%" height="120%" filterUnits="userSpaceOnUse" primitiveUnits="userSpaceOnUse"><feComponentTransfer color-interpolation-filters="sRGB"><feFuncR type="discrete" tableValues="0 0"/><feFuncG type="discrete" tableValues="0 0"/><feFuncB type="discrete" tableValues="0 0"/><feFuncA type="linear" slope="0.4" intercept="0"/></feComponentTransfer><feGaussianBlur stdDeviation="6.11111 6.11111"/></filter><clipPath id="clip1"><rect x="1546" y="621" width="900" height="913"/></clipPath><clipPath id="clip2"><path d="M1558.5 633.5 1558.5 1501.5 2413.5 1501.5 2413.5 633.5ZM1546 621 2446 621 2446 1534 1546 1534Z" fill-rule="evenodd" clip-rule="evenodd"/></clipPath><clipPath id="clip3"><rect x="1817" y="660" width="316" height="292"/></clipPath><clipPath id="clip4"><rect x="1817" y="660" width="316" height="292"/></clipPath><clipPath id="clip5"><rect x="1817" y="660" width="316" height="292"/></clipPath></defs><g clip-path="url(#clip1)" transform="translate(-1546 -621)"><g clip-path="url(#clip2)"><g filter="url(#fx0)" transform="translate(1545 620)"><g><rect x="23.2228" y="23.2228" width="855" height="868" stroke="#000000" stroke-width="7" stroke-miterlimit="8" fill="#FFFFFF"/></g></g></g><rect x="1558.5" y="633.5" width="855" height="868" stroke="#000000" stroke-width="6.875" stroke-miterlimit="8" fill="#FFFFFF"/><path d="M1703.06 1140.54 1703.06 1024.58 1996.51 1024.58 1993.08 1028.02 1993.08 938.417 1999.95 938.417 1999.95 1031.46 1706.5 1031.46 1709.94 1028.02 1709.94 1140.54ZM1982.76 943 1996.51 915.5 2010.26 943Z" fill="#747474"/><path d="M0-3.4375 115.957-3.4375 115.957 290.014 112.519 286.576 202.122 286.576 202.122 293.451 109.082 293.451 109.082 0 112.519 3.4375 0 3.4375ZM197.539 276.264 225.039 290.014 197.539 303.764Z" fill="#747474" transform="matrix(-6.12323e-17 -1 -1 6.12323e-17 2288.51 1140.54)"/><g><g><g><path d="M1940.88 1196.59C1932.79 1196.59 1928.62 1192.43 1928.62 1184.34 1928.62 1176.26 1932.79 1172.09 1940.88 1172.09L2068.28 1172.09C2068.28 1172.09 2073.18 1172.09 2073.18 1176.99L2073.18 1196.59 1940.88 1196.59Z" fill="#C89005"/><path d="M2073.18 1199.04 1940.88 1199.04C1931.32 1199.04 1926.17 1193.9 1926.17 1184.34 1926.17 1174.79 1931.32 1169.64 1940.88 1169.64L2068.28 1169.64C2071.22 1169.64 2075.63 1171.6 2075.63 1176.99L2075.63 1196.59C2075.63 1198.06 2074.4 1199.04 2073.18 1199.04ZM2068.28 1174.54 1940.88 1174.54C1934.01 1174.54 1931.07 1177.48 1931.07 1184.34 1931.07 1191.2 1934.01 1194.15 1940.88 1194.15L2070.73 1194.15 2070.73 1176.99C2070.73 1175.03 2069.26 1174.54 2068.28 1174.54Z" fill="#231C1C"/><path d="M2071.71 1234.57C2072.2 1237.27 2070.48 1239.72 2067.79 1240.45L1952.64 1263.97C1949.94 1264.46 1947.49 1262.75 1946.76 1260.05L1932.54 1190.47C1932.05 1187.77 1933.77 1185.32 1936.46 1184.59L2051.62 1161.07C2054.31 1160.58 2056.76 1162.29 2057.5 1164.99L2071.71 1234.57Z" fill="#C11F29"/><path d="M1951.65 1266.42C1948.22 1266.42 1945.28 1263.97 1944.55 1260.54L1930.34 1190.96C1929.85 1189 1930.34 1187.04 1931.32 1185.32 1932.3 1183.61 1934.01 1182.63 1935.97 1182.14L2051.12 1158.62C2055.05 1157.88 2058.97 1160.33 2059.7 1164.25L2073.91 1233.83C2074.65 1237.76 2072.2 1241.68 2068.28 1242.41L1953.12 1265.93C1952.64 1266.42 1952.15 1266.42 1951.65 1266.42ZM2052.6 1163.52 2052.1 1163.52 1936.95 1187.04C1935.73 1187.28 1934.75 1188.51 1934.99 1189.98L1949.2 1259.56C1949.45 1260.79 1950.67 1261.77 1952.15 1261.52L2067.3 1238C2068.03 1237.76 2068.52 1237.51 2068.77 1237.02 2069.01 1236.53 2069.26 1235.8 2069.01 1235.06L2054.8 1165.48C2054.8 1164.25 2053.82 1163.52 2052.6 1163.52Z" fill="#231C1C"/><path d="M2062.64 1190.47C2062.89 1192.18 2061.17 1194.15 2058.48 1194.64L1943.32 1218.16C1940.63 1218.65 1938.18 1217.67 1937.93 1215.95L1936.22 1207.86C1935.97 1206.15 1937.69 1204.19 1940.38 1203.7L2055.54 1180.18C2058.23 1179.69 2060.68 1180.67 2060.93 1182.38L2062.64 1190.47Z" fill="#513328"/><path d="M1941.85 1220.85C1938.67 1220.85 1935.97 1219.14 1935.48 1216.44L1933.77 1208.6C1933.03 1205.42 1935.73 1202.23 1939.89 1201.49L2055.05 1177.97C2058.97 1177.24 2062.64 1178.95 2063.38 1182.14L2065.09 1190.22C2065.83 1193.41 2063.13 1196.59 2058.97 1197.33L1943.81 1220.85 1941.85 1220.85ZM2057.01 1182.63 2056.03 1182.63 1940.88 1206.15C1939.4 1206.4 1938.67 1207.13 1938.67 1207.62L1940.38 1215.46C1940.63 1215.7 1941.61 1215.95 1942.83 1215.7L2057.99 1192.18C2059.46 1191.94 2060.19 1191.2 2060.19 1190.96L2058.48 1183.12C2058.48 1182.88 2057.99 1182.63 2057.01 1182.63ZM1996.21 1232.43 2017.81 1227.99 2018.8 1232.79 1997.2 1237.23ZM1983.76 1244.94 2034.17 1234.59 2035.15 1239.39 1984.75 1249.75Z" fill="#231C1C"/><path d="M2058.72 1271.32C2057.99 1274.02 2055.29 1275.49 2052.6 1274.51L1933.03 1238C1930.58 1237.27 1929.11 1234.57 1929.85 1231.88L1951.41 1161.56C1952.15 1158.86 1954.84 1157.39 1957.53 1158.37L2077.34 1194.88C2079.79 1195.61 2081.26 1198.31 2080.53 1201.01L2058.72 1271.32Z" fill="#B8CA43"/><path d="M2054.07 1277.45C2053.33 1277.45 2052.6 1277.45 2051.86 1277.2L1932.3 1240.45C1930.34 1239.96 1928.87 1238.49 1927.89 1236.78 1926.91 1235.06 1926.91 1233.1 1927.4 1231.14L1948.96 1160.82C1950.18 1156.9 1954.1 1154.7 1958.03 1155.92L2077.83 1192.43C2081.75 1193.65 2083.71 1197.82 2082.73 1201.49L2061.17 1271.81C2060.68 1273.77 2059.46 1275.24 2057.74 1276.22 2056.52 1276.96 2055.29 1277.45 2054.07 1277.45ZM1956.06 1160.58C1955.08 1160.58 1954.1 1161.31 1953.86 1162.29L1932.3 1232.61C1932.05 1233.34 1932.05 1233.83 1932.54 1234.57 1932.79 1235.06 1933.28 1235.55 1934.01 1235.8L2053.58 1272.3C2054.07 1272.55 2054.8 1272.3 2055.29 1272.06 2055.78 1271.81 2056.27 1271.32 2056.52 1270.59L2078.08 1200.27C2078.57 1199.04 2077.83 1197.57 2076.61 1197.33L1956.55 1160.82C1956.31 1160.58 1956.31 1160.58 1956.06 1160.58Z" fill="#231C1C"/><path d="M2052.35 1251.48 2063.87 1213.99C2058.72 1212.52 2056.03 1206.89 2057.5 1201.74L1969.79 1175.03C1968.31 1180.18 1962.68 1183.12 1957.78 1181.65L1946.26 1219.14C1951.41 1220.6 1954.1 1226.24 1952.64 1231.39L2040.1 1258.09C2041.82 1252.95 2047.21 1250.01 2052.35 1251.48Z" fill="#B8CA43"/><path d="M2041.82 1261.03 1949.69 1232.85 1950.43 1230.41C1950.92 1228.45 1950.92 1226.48 1949.94 1224.77 1948.96 1223.06 1947.49 1221.83 1945.77 1221.34L1943.32 1220.6 1956.31 1178.46 1958.76 1179.2C1962.43 1180.42 1966.6 1178.22 1967.82 1174.3L1968.56 1171.85 2060.68 1200.03 2059.95 1202.47C2059.46 1204.43 2059.46 1206.4 2060.44 1208.11 2061.42 1209.82 2062.89 1211.05 2064.6 1211.54L2067.05 1212.28 2054.07 1254.42 2051.62 1253.68C2047.94 1252.46 2043.78 1254.66 2042.55 1258.58L2041.82 1261.03ZM1955.57 1229.67 2038.88 1255.15C2041.08 1250.74 2045.74 1248.29 2050.64 1248.78L2060.93 1215.46C2058.97 1214.23 2057.25 1212.52 2056.03 1210.56 2054.8 1208.35 2054.56 1206.15 2054.8 1203.7L1971.5 1178.22C1969.29 1182.63 1964.4 1185.08 1959.74 1184.59L1949.45 1217.67C1951.41 1218.89 1953.12 1220.6 1954.35 1222.56 1955.33 1224.77 1955.82 1227.22 1955.57 1229.67Z" fill="#231C1C"/><path d="M1994.94 1249.32C2011.5 1254.39 2029.42 1243.81 2034.95 1225.69 2040.49 1207.58 2031.56 1188.78 2014.99 1183.72 1998.43 1178.66 1980.52 1189.24 1974.98 1207.35 1969.44 1225.47 1978.37 1244.26 1994.94 1249.32Z" fill="#E1E0A6"/><path d="M2003.35 1252.95C2000.41 1252.95 1997.22 1252.46 1994.29 1251.48 1985.71 1248.78 1978.6 1242.66 1974.44 1234.08 1970.52 1225.51 1969.79 1215.7 1972.72 1206.4 1975.67 1197.08 1981.55 1189.24 1989.63 1184.59 1997.72 1179.69 2007.03 1178.46 2015.6 1181.16 2033.49 1186.55 2043.04 1206.89 2037.16 1226.24 2032.51 1242.41 2018.3 1252.95 2003.35 1252.95ZM2006.54 1184.83C2001.64 1184.83 1996.73 1186.3 1992.08 1189 1984.97 1193.16 1979.83 1200.03 1977.38 1208.11 1974.93 1216.19 1975.42 1224.77 1978.85 1232.12 1982.28 1239.47 1988.16 1244.61 1995.51 1246.82 2010.7 1251.48 2027.36 1241.68 2032.51 1224.77 2037.65 1207.86 2029.32 1190.47 2014.13 1185.81 2011.93 1185.32 2009.23 1184.83 2006.54 1184.83Z" fill="#231C1C"/><path d="M1992.6 1248.61 2012.63 1182.99 2017.32 1184.43 1997.29 1250.04Z" fill="#231C1C"/><path d="M2001.39 1242.9C1999.92 1242.9 1998.7 1242.66 1997.22 1242.17 1993.31 1240.94 1990.12 1238.24 1988.41 1234.57 1986.94 1231.14 1986.69 1227.46 1987.67 1224.04L1992.32 1225.51C1991.59 1227.95 1991.83 1230.41 1992.82 1232.61 1994.04 1235.06 1996 1237.02 1998.7 1237.76 2003.84 1239.22 2009.23 1236.29 2010.7 1231.14 2012.17 1225.99 2009.48 1220.6 2004.33 1218.89 1996.73 1216.44 1992.32 1208.35 1994.78 1200.52 1996 1196.84 1998.45 1193.65 2001.88 1191.94 2005.31 1189.98 2009.23 1189.73 2012.91 1190.71 2016.58 1191.94 2019.77 1194.39 2021.48 1197.82 2023.2 1201.25 2023.69 1205.17 2022.46 1209.09L2017.81 1207.62C2018.54 1205.17 2018.3 1202.47 2017.07 1200.27 2015.85 1198.06 2013.89 1196.35 2011.44 1195.61 2008.99 1194.88 2006.29 1195.12 2004.09 1196.35 2001.88 1197.57 2000.17 1199.53 1999.43 1202.23 1997.96 1207.38 2000.66 1212.77 2005.8 1214.48 2013.4 1216.93 2017.81 1225.02 2015.36 1232.85 2013.4 1238.73 2007.52 1242.9 2001.39 1242.9Z" fill="#231C1C"/><path d="M2080.53 1289.7C2080.53 1292.39 2078.32 1294.6 2075.63 1294.6L1933.52 1294.6C1930.83 1294.6 1928.62 1292.39 1928.62 1289.7L1928.62 1184.34C1928.62 1191.69 1933.52 1196.59 1940.88 1196.59L2075.63 1196.59C2078.32 1196.59 2080.53 1198.8 2080.53 1201.49L2080.53 1289.7Z" fill="#EEBE00"/><path d="M2075.63 1297.05 1933.52 1297.05C1929.36 1297.05 1926.17 1293.86 1926.17 1289.7L1926.17 1184.34C1926.17 1182.88 1927.15 1181.89 1928.62 1181.89 1930.09 1181.89 1931.07 1182.88 1931.07 1184.34 1931.07 1190.22 1934.99 1194.15 1940.88 1194.15L2075.63 1194.15C2079.79 1194.15 2082.98 1197.33 2082.98 1201.49L2082.98 1289.7C2082.98 1293.86 2079.55 1297.05 2075.63 1297.05ZM1931.07 1195.61 1931.07 1289.7C1931.07 1291.17 1932.05 1292.15 1933.52 1292.15L2075.63 1292.15C2077.1 1292.15 2078.08 1291.17 2078.08 1289.7L2078.08 1201.49C2078.08 1200.03 2077.1 1199.04 2075.63 1199.04L1940.88 1199.04C1936.95 1199.04 1933.52 1197.82 1931.07 1195.61Z" fill="#231C1C"/><path d="M2080.53 1257.85 2051.86 1257.85C2045.98 1257.85 2041.33 1253.44 2041.33 1248.05L2041.33 1243.15C2041.33 1237.76 2045.98 1233.34 2051.86 1233.34L2080.77 1233.34 2080.77 1257.85Z" fill="#C89005"/><path d="M2080.53 1260.3 2051.86 1260.3C2044.76 1260.3 2038.88 1254.91 2038.88 1248.05L2038.88 1243.15C2038.88 1236.29 2044.76 1230.9 2051.86 1230.9L2080.77 1230.9C2082.24 1230.9 2083.22 1231.88 2083.22 1233.34L2083.22 1257.85C2082.98 1259.32 2082 1260.3 2080.53 1260.3ZM2051.86 1235.8C2047.45 1235.8 2043.78 1238.98 2043.78 1243.15L2043.78 1248.05C2043.78 1252.21 2047.45 1255.4 2051.86 1255.4L2078.32 1255.4 2078.32 1235.8 2051.86 1235.8Z" fill="#231C1C"/><path d="M1941.36 1206.4 1953.12 1206.4 1953.12 1211.29 1941.36 1211.29Z" fill="#231C1C"/><path d="M1960.96 1206.4 1972.72 1206.4 1972.72 1211.29 1960.96 1211.29Z" fill="#231C1C"/><path d="M1980.56 1206.4 1992.32 1206.4 1992.32 1211.29 1980.56 1211.29Z" fill="#231C1C"/><path d="M2000.17 1206.4 2011.93 1206.4 2011.93 1211.29 2000.17 1211.29Z" fill="#231C1C"/><path d="M2019.77 1206.4 2031.53 1206.4 2031.53 1211.29 2019.77 1211.29Z" fill="#231C1C"/><path d="M2039.37 1206.4 2051.12 1206.4 2051.12 1211.29 2039.37 1211.29Z" fill="#231C1C"/><path d="M2058.97 1206.4 2070.73 1206.4 2070.73 1211.29 2058.97 1211.29Z" fill="#231C1C"/><path d="M1941.36 1279.9 1953.12 1279.9 1953.12 1284.8 1941.36 1284.8Z" fill="#231C1C"/><path d="M1960.96 1279.9 1972.72 1279.9 1972.72 1284.8 1960.96 1284.8Z" fill="#231C1C"/><path d="M1980.56 1279.9 1992.32 1279.9 1992.32 1284.8 1980.56 1284.8Z" fill="#231C1C"/><path d="M2000.17 1279.9 2011.93 1279.9 2011.93 1284.8 2000.17 1284.8Z" fill="#231C1C"/><path d="M2019.77 1279.9 2031.53 1279.9 2031.53 1284.8 2019.77 1284.8Z" fill="#231C1C"/><path d="M2039.37 1279.9 2051.12 1279.9 2051.12 1284.8 2039.37 1284.8Z" fill="#231C1C"/><path d="M2058.97 1279.9 2070.73 1279.9 2070.73 1284.8 2058.97 1284.8Z" fill="#231C1C"/><path d="M2048.68 1245.59C2048.68 1248.3 2050.87 1250.49 2053.58 1250.49 2056.28 1250.49 2058.48 1248.3 2058.48 1245.59 2058.48 1242.89 2056.28 1240.7 2053.58 1240.7 2050.87 1240.7 2048.68 1242.89 2048.68 1245.59Z" fill="#231C1C"/></g></g></g><text font-family="Arial,Arial_MSFontService,sans-serif" font-weight="700" font-size="48" transform="matrix(1 0 0 1 1923.12 1383)">Identity </text><text font-family="Arial,Arial_MSFontService,sans-serif" font-weight="700" font-size="48" transform="matrix(1 0 0 1 1937.74 1441)">Wallet</text><g><g><g><path d="M144.779 146.627 25.2766 146.627C16.0378 146.721 8.47239 139.307 8.37807 130.068L8.37807 55.5641C8.4724 46.3253 16.0378 38.912 25.2766 39.0051L56.6597 39.0051 56.6597 30.7257C56.726 24.1263 62.1296 18.8301 68.729 18.8964 68.7293 18.8964 68.7298 18.8964 68.7301 18.8964L102.531 18.8964C109.13 18.8314 114.533 24.1267 114.601 30.7257L114.601 39.0051 144.779 39.0051C154.018 38.912 161.584 46.3253 161.678 55.5641L161.678 130.068C161.584 139.307 154.018 146.721 144.779 146.627ZM104.945 34.2537C104.911 30.9551 102.21 28.3084 98.9117 28.3408L72.3531 28.3408C69.0535 28.3063 66.3505 30.9533 66.3161 34.2531 66.3161 34.2532 66.3161 34.2534 66.3161 34.2537L66.3161 39.0015 104.945 39.0015 104.945 34.2537Z" fill="#40A9FF" transform="matrix(1 0 0 1.00595 2203 1151)"/><path d="M137.475 139.323 28.9288 139.323C19.594 139.323 15.6824 131.909 15.6824 122.764L15.6824 62.8685C15.6824 53.7379 19.5976 46.3095 28.9288 46.3095L56.6597 46.3095 56.6597 38.03C56.726 31.4306 62.1296 26.1345 68.729 26.2006 68.7293 26.2006 68.7298 26.2006 68.7301 26.2006L102.531 26.2006C109.13 26.1358 114.533 31.431 114.601 38.03L114.601 46.3095 137.475 46.3095C146.714 46.2162 154.279 53.6297 154.374 62.8685L154.374 122.764C154.279 132.003 146.714 139.416 137.475 139.323ZM104.945 41.558C104.911 38.2595 102.21 35.6127 98.9117 35.6451L72.3531 35.6451C69.0535 35.6107 66.3505 38.2577 66.3161 41.5575 66.3161 41.5576 66.3161 41.5578 66.3161 41.558L66.3161 46.3059 104.945 46.3059 104.945 41.558Z" fill="#93CEFF" transform="matrix(1 0 0 1.00595 2203 1151)"/><path d="M62.4083 59.3295 58.3909 63.3469 62.9925 67.9485 58.3909 72.5503 53.7891 67.9485 49.1873 72.5503 58.3909 84.0547 64.1431 86.9325 68.7447 90.9499 80.8261 78.8723 76.8087 74.8549 73.9345 68.5293ZM85.9939 115.124 102.673 130.656C105.349 130.968 108.051 130.968 110.726 130.656 111.413 130.032 121.08 120.302 121.08 120.302 121.114 117.581 120.726 114.87 119.93 112.268 119.199 111.198 111.603 103.736 107.107 99.3536 106.047 98.9371 104.945 98.6383 103.82 98.4625 103.82 98.4625 102.476 98.8569 101.001 99.16ZM49.1801 116.274 49.1801 122.026 58.3835 131.23 64.7127 130.656 99.7992 94.9929C99.7992 94.9929 111.172 96.4866 117.056 88.6637 121.85 81.7435 121.85 72.5752 117.056 65.6551 112.052 70.7059 106.125 76.5859 106.125 76.5859L103.824 74.2851 113.604 63.9313C107.41 58.1213 97.9253 57.6351 91.1691 62.7807 83.3499 68.5695 83.6931 81.1877 83.6931 81.1877Z" fill="#FFFFFF" transform="matrix(1 0 0 1.00595 2203 1151)"/><path d="M63.5843 62.9633 60.2973 66.2285 64.0371 69.9645 60.2973 73.6971 56.5575 69.9645 52.8177 73.6971 60.2973 83.0321 64.9721 85.3659 68.7119 88.6345 78.5289 78.8321 75.2419 75.5633 72.9045 70.4503ZM90.0552 115.555 103.612 128.158C105.786 128.411 107.982 128.411 110.157 128.158 110.712 127.654 118.557 119.758 118.557 119.758 118.591 117.543 118.28 115.337 117.636 113.217 117.041 112.348 110.869 106.278 107.217 102.739 106.356 102.398 105.461 102.153 104.547 102.009 104.547 102.009 103.451 102.33 102.257 102.575ZM56.4845 112.837 56.4845 117.505 63.9641 124.974 69.1063 124.506 101.275 91.9141C101.275 91.9141 110.518 93.1303 115.299 86.7792 119.215 82.5405 119.215 76.0038 115.299 71.7651 111.234 75.8593 106.417 80.6325 106.417 80.6325L100.895 75.1141 108.842 66.7141C108.842 66.7141 104.868 58.8327 94.2625 65.7829 87.9077 70.4795 88.1853 80.7165 88.1853 80.7165Z" fill="#FFF298" transform="matrix(1 0 0 1.00595 2203 1151)"/></g></g></g><text font-family="Arial,Arial_MSFontService,sans-serif" font-weight="700" font-size="48" transform="matrix(1 0 0 1 2196.5 1383)">Verifier </text><text font-family="Arial,Arial_MSFontService,sans-serif" font-weight="700" font-size="48" transform="matrix(1 0 0 1 2228.59 1441)">SDK</text><g><g><g><path d="M143.437 154.687 36.5625 154.687C24.1361 154.687 14.0625 144.614 14.0625 132.187 14.0625 129.081 16.5809 126.562 19.6875 126.562L160.312 126.562C163.419 126.562 165.937 129.081 165.937 132.187 165.937 144.614 155.864 154.687 143.437 154.687Z" fill="#FFFFFF" transform="matrix(1 0 0 1.00556 1619 1148)"/><path d="M28.125 135 154.687 135C157.794 135 160.312 137.518 160.312 140.625 160.312 146.838 155.275 151.875 149.062 151.875L33.75 151.875C27.5368 151.875 22.5 146.838 22.5 140.625 22.5 137.518 25.0184 135 28.125 135Z" fill="#8BF0AD" transform="matrix(1 0 0 1.00556 1619 1148)"/><path d="M143.437 157.5 36.5625 157.5C22.6054 157.5 11.25 146.144 11.25 132.187 11.2548 127.529 15.0296 123.755 19.6875 123.75L160.312 123.75C164.97 123.755 168.745 127.529 168.75 132.187 168.75 146.144 157.394 157.5 143.437 157.5ZM19.6875 129.375C18.1341 129.375 16.875 130.634 16.875 132.187 16.8866 143.056 25.6943 151.863 36.5625 151.875L143.437 151.875C154.306 151.863 163.113 143.056 163.125 132.187 163.125 130.634 161.866 129.375 160.312 129.375Z" fill="#333333" transform="matrix(1 0 0 1.00556 1619 1148)"/><path d="M36.5625 25.3125 143.437 25.3125C155.864 25.3125 165.937 35.3861 165.937 47.8124L165.937 109.687C165.937 112.794 163.419 115.312 160.312 115.312L19.6875 115.312C16.5809 115.312 14.0625 112.794 14.0625 109.687L14.0625 47.8124C14.0625 35.3861 24.1361 25.3125 36.5625 25.3125Z" fill="#FFFFFF" transform="matrix(1 0 0 1.00556 1619 1148)"/><path d="M42.1874 33.75 143.437 33.75C154.31 33.75 163.125 42.5643 163.125 53.4374L163.125 109.687C163.125 111.241 161.866 112.5 160.312 112.5L42.1874 112.5C31.3143 112.5 22.5 103.685 22.5 92.8124L22.5 53.4374C22.5 42.5643 31.3143 33.75 42.1874 33.75Z" fill="#82DAFA" transform="matrix(1 0 0 1.00556 1619 1148)"/><path d="M160.312 118.125 19.6875 118.125C15.0296 118.12 11.2548 114.345 11.25 109.687L11.25 47.8124C11.25 33.8554 22.6054 22.5 36.5625 22.5L143.437 22.5C157.394 22.5 168.75 33.8554 168.75 47.8124L168.75 109.687C168.745 114.345 164.97 118.12 160.312 118.125ZM36.5625 28.125C25.6943 28.1366 16.8866 36.9442 16.875 47.8124L16.875 109.687C16.875 111.241 18.1341 112.5 19.6875 112.5L160.312 112.5C161.866 112.5 163.125 111.241 163.125 109.687L163.125 47.8124C163.113 36.9442 154.306 28.1366 143.437 28.125Z" fill="#333333" transform="matrix(1 0 0 1.00556 1619 1148)"/><path d="M36.5625 140.625 87.1874 140.625C89.0624 140.625 89.9999 141.562 89.9999 143.437L89.9999 143.437C89.9999 145.312 89.0624 146.25 87.1874 146.25L36.5625 146.25C34.6874 146.25 33.75 145.312 33.75 143.437L33.75 143.437C33.75 141.562 34.6874 140.625 36.5625 140.625Z" fill="#333333" transform="matrix(1 0 0 1.00556 1619 1148)"/><path d="M104.062 140.625 109.687 140.625C111.562 140.625 112.5 141.562 112.5 143.437L112.5 143.437C112.5 145.312 111.562 146.25 109.687 146.25L104.062 146.25C102.187 146.25 101.25 145.312 101.25 143.437L101.25 143.437C101.25 141.562 102.187 140.625 104.062 140.625Z" fill="#333333" transform="matrix(1 0 0 1.00556 1619 1148)"/><path d="M115.312 74.6876C115.323 67.7949 109.744 62.1985 102.851 62.1878 102.312 62.1869 101.774 62.221 101.239 62.2898 101.239 62.1509 101.25 62.0138 101.25 61.8749 101.25 55.6618 96.213 50.6249 89.9999 50.6249 83.7867 50.6249 78.7499 55.6618 78.7499 61.8749 78.7499 62.0138 78.7499 62.1509 78.7604 62.2898 71.9154 61.3947 65.6405 66.2181 64.7454 73.0632 63.8503 79.9085 68.6738 86.1832 75.5189 87.0782 75.6581 87.0965 75.7977 87.1123 75.9374 87.1259L104.062 87.1259C110.449 86.4823 115.311 81.1069 115.312 74.6876Z" fill="#FFFFFF" transform="matrix(1 0 0 1.00556 1619 1148)"/><path d="M112.5 74.7509C112.5 69.4423 109.687 64.6874 101.385 64.9071 101.385 60.1294 97.4055 56.257 92.4942 56.257 87.5829 56.257 83.6032 60.1241 83.6032 64.9071 83.6032 65.0126 83.6032 65.1198 83.612 65.2253 83.1996 65.1742 82.7848 65.1476 82.3692 65.1462 76.92 65.1462 72.4886 69.4493 72.4886 74.7579 72.4886 79.7395 76.3874 83.837 81.3796 84.3204L103.609 84.3204C108.601 83.83 112.5 79.7325 112.5 74.7509Z" fill="#C4F08B" transform="matrix(1 0 0 1.00556 1619 1148)"/><path d="M104.062 89.9384 75.9374 89.9384C75.8442 89.9384 75.7511 89.9384 75.6597 89.9243 67.2463 89.0596 61.1268 81.5383 61.9915 73.1249 62.7524 65.72 68.7279 59.9348 76.1536 59.414 77.5103 51.767 84.8092 46.6676 92.4564 48.0243 98.2667 49.055 102.815 53.6037 103.846 59.414 112.284 59.9888 118.659 67.2953 118.084 75.7333 117.577 83.1834 111.77 89.1813 104.34 89.9296 104.249 89.9331 104.156 89.9384 104.062 89.9384ZM76.0851 84.3134 103.915 84.3134C109.231 83.7113 113.053 78.9137 112.45 73.5976 111.896 68.6959 107.746 64.9942 102.813 65.0003 102.404 65.0015 101.996 65.0279 101.591 65.0794 100.05 65.2745 98.6425 64.1836 98.4472 62.6426 98.4282 62.4917 98.4214 62.3397 98.4268 62.1878L98.4268 62.1509 98.4268 61.8749C98.4268 57.215 94.6493 53.4374 89.9893 53.4374 85.3294 53.4374 81.5518 57.215 81.5518 61.8749L81.5518 62.1878C81.6079 63.7401 80.3949 65.0439 78.8425 65.0998 78.6907 65.1054 78.5386 65.0986 78.3878 65.0794 77.9826 65.0279 77.5746 65.0015 77.1661 65.0003 71.816 64.9936 67.4734 69.3252 67.4667 74.6755 67.4605 79.6084 71.1623 83.7583 76.064 84.3134Z" fill="#333333" transform="matrix(1 0 0 1.00556 1619 1148)"/></g></g></g><text font-family="Arial,Arial_MSFontService,sans-serif" font-weight="700" font-size="48" transform="matrix(1 0 0 1 1594.83 1381)">Credential</text><text font-family="Arial,Arial_MSFontService,sans-serif" font-weight="700" font-size="48" transform="matrix(1 0 0 1 1614.88 1439)">Platform</text><path d="M1997.5 986.5 1997.5 1140.48" stroke="#747474" stroke-width="6.875" stroke-miterlimit="8" fill="none" fill-rule="evenodd"/><g clip-path="url(#clip3)"><g clip-path="url(#clip4)"><g clip-path="url(#clip5)"><path d="M254.291 237.01 36.4664 237.01C30.4869 237.01 25.3616 231.885 25.3616 225.906L25.3616 70.4385C25.3616 64.459 30.4869 59.3337 36.4664 59.3337L254.291 59.3337C260.271 59.3337 265.396 64.459 265.396 70.4385L265.396 226.76C265.396 232.739 260.271 237.01 254.291 237.01" fill="#E5E8EA" transform="matrix(1.08591 0 0 1 1817 660.284)"/><path d="M273.938 218.218 56.9676 218.218C50.9881 218.218 45.8628 213.092 45.8628 207.113L45.8628 51.6458C45.8628 45.6663 50.9881 40.541 56.9676 40.541L274.792 40.541C280.772 40.541 285.897 45.6663 285.897 51.6458L285.897 207.967C285.043 213.092 279.918 218.218 273.938 218.218" fill="#F0F8FF" transform="matrix(1.08591 0 0 1 1817 660.284)"/><path d="M56.9676 45.6663C53.5507 45.6663 50.9881 48.229 50.9881 51.6458L50.9881 207.967C50.9881 211.384 53.5507 213.947 56.9676 213.947L274.792 213.947C278.209 213.947 280.772 211.384 280.772 207.967L280.772 51.6458C280.772 48.229 278.209 45.6663 274.792 45.6663L56.9676 45.6663ZM273.938 223.343 56.9676 223.343C47.5712 223.343 40.7375 215.655 40.7375 207.113L40.7375 51.6458C40.7375 42.2494 48.4254 35.4157 56.9676 35.4157L274.792 35.4157C284.189 35.4157 291.022 43.1037 291.022 51.6458L291.022 207.967C291.022 216.509 283.334 223.343 273.938 223.343Z" fill="#36A5FF" transform="matrix(1.08591 0 0 1 1817 660.284)"/><path d="M68.0723 65.3132C68.0723 68.7301 70.635 71.2927 74.0518 71.2927 77.4687 71.2927 80.0314 68.7301 80.0314 65.3132 80.0314 61.8964 77.4687 59.3337 74.0518 59.3337 70.635 59.3337 68.0723 61.8964 68.0723 65.3132" fill="#1888FF" transform="matrix(1.08591 0 0 1 1817 660.284)"/><path d="M86.8651 65.3132C86.8651 68.7301 89.4277 71.2927 92.8446 71.2927 96.2614 71.2927 98.8241 68.7301 98.8241 65.3132 98.8241 61.8964 96.2614 59.3337 92.8446 59.3337 89.4277 59.3337 86.8651 61.8964 86.8651 65.3132" fill="#52ADFF" transform="matrix(1.08591 0 0 1 1817 660.284)"/><path d="M105.658 65.3132C105.658 68.7301 108.22 71.2927 111.637 71.2927 115.054 71.2927 117.617 68.7301 117.617 65.3132 117.617 61.8964 115.054 59.3337 111.637 59.3337 108.22 59.3337 105.658 61.8964 105.658 65.3132" fill="#FFC900" transform="matrix(1.08591 0 0 1 1817 660.284)"/><path d="M153.494 111.441 73.1976 111.441C70.635 111.441 68.0723 108.878 68.0723 106.316 68.0723 103.753 70.635 101.19 73.1976 101.19L153.494 101.19C156.056 101.19 158.619 103.753 158.619 106.316 158.619 108.878 156.911 111.441 153.494 111.441" fill="#1888FF" transform="matrix(1.08591 0 0 1 1817 660.284)"/><path d="M257.119 175.114 73.4624 175.114C70.8998 175.114 68.3372 172.551 68.3372 169.989 68.3372 167.426 70.8998 164.863 73.4624 164.863L257.973 164.863C260.535 164.863 263.098 167.426 263.098 169.989 262.244 172.551 260.535 175.114 257.119 175.114M257.119 143.508 73.4624 143.508C70.8998 143.508 68.3372 140.945 68.3372 138.383 68.3372 135.82 70.8998 133.257 73.4624 133.257L257.973 133.257C260.535 133.257 263.098 135.82 263.098 138.383 262.244 140.945 260.535 143.508 257.119 143.508" fill="#B5D9F4" transform="matrix(1.08591 0 0 1 1817 660.284)"/><path d="M0 217.825C0 231.492 6.83372 243.451 18.7927 250.285 30.7517 257.119 45.2734 257.119 56.3782 250.285 68.3372 243.451 75.1709 231.492 75.1709 217.825 75.1709 197.324 58.0866 180.239 37.5854 180.239 17.0843 180.239 0 197.324 0 217.825" fill="#FF617E" transform="matrix(1.08591 0 0 1 1817 660.284)"/><path d="M210.137 184.51C207.574 187.073 203.303 187.073 200.74 184.51L182.802 167.426C180.239 164.863 180.239 160.592 182.802 158.03 185.365 155.467 189.636 155.467 192.198 158.03L210.137 175.114C212.699 177.677 212.699 181.948 210.137 184.51" fill="#FFFFFF" transform="matrix(1.08591 0 0 1 1817 660.284)"/><path d="M187.927 158.03C187.073 158.03 186.219 158.03 185.365 158.884 183.656 160.592 183.656 163.155 185.365 164.009L203.303 181.093C205.011 182.802 207.574 182.802 208.428 181.093 210.137 179.385 210.137 176.822 208.428 175.968L190.49 158.884C189.636 158.884 188.781 158.03 187.927 158.03M205.011 189.636C202.449 189.636 199.886 188.781 198.178 187.073L180.239 169.989C175.968 166.572 175.968 159.738 180.239 156.321 181.948 154.613 184.51 153.759 187.073 153.759 189.636 153.759 192.198 154.613 193.907 156.321L211.845 173.406C216.116 176.822 216.116 183.656 211.845 187.073 210.137 188.781 207.574 189.636 205.011 189.636" fill="#36A5FF" transform="matrix(1.08591 0 0 1 1817 660.284)"/><path d="M216.97 151.196C213.554 151.196 210.137 147.779 210.137 144.362L210.137 122.153C210.137 118.736 213.554 115.319 216.97 115.319 220.387 115.319 223.804 118.736 223.804 122.153L223.804 144.362C223.804 147.779 220.387 151.196 216.97 151.196" fill="#FFFFFF" transform="matrix(1.08591 0 0 1 1817 660.284)"/><path d="M216.97 118.736C215.262 118.736 213.554 120.444 213.554 122.153L213.554 144.362C213.554 146.071 215.262 147.779 216.97 147.779 218.679 147.779 220.387 146.071 220.387 144.362L220.387 122.153C220.387 120.444 218.679 118.736 216.97 118.736M216.97 154.613C211.845 154.613 207.574 150.342 207.574 145.216L207.574 123.007C207.574 117.882 211.845 113.611 216.97 113.611 222.096 113.611 226.367 117.882 226.367 123.007L226.367 145.216C226.367 149.488 222.096 154.613 216.97 154.613" fill="#36A5FF" transform="matrix(1.08591 0 0 1 1817 660.284)"/><path d="M203.303 156.321C199.886 156.321 196.469 152.904 196.469 149.488L196.469 110.194C196.469 106.777 199.886 103.36 203.303 103.36 206.72 103.36 210.137 106.777 210.137 110.194L210.137 149.488C210.137 152.904 206.72 156.321 203.303 156.321" fill="#FFFFFF" transform="matrix(1.08591 0 0 1 1817 660.284)"/><path d="M203.303 106.777C201.595 106.777 199.886 108.485 199.886 110.194L199.886 149.488C199.886 151.196 201.595 152.904 203.303 152.904 205.011 152.904 206.72 151.196 206.72 149.488L206.72 110.194C206.72 108.485 205.011 106.777 203.303 106.777M203.303 158.884C198.178 158.884 193.907 154.613 193.907 149.488L193.907 110.194C193.907 105.068 198.178 100.797 203.303 100.797 208.428 100.797 212.699 105.068 212.699 110.194L212.699 149.488C213.554 154.613 208.428 158.884 203.303 158.884" fill="#36A5FF" transform="matrix(1.08591 0 0 1 1817 660.284)"/><path d="M230.638 158.03C227.221 158.03 223.804 154.613 223.804 151.196L223.804 128.986C223.804 125.57 227.221 122.153 230.638 122.153 234.055 122.153 237.472 125.57 237.472 128.986L237.472 151.196C237.472 154.613 234.055 158.03 230.638 158.03" fill="#FFFFFF" transform="matrix(1.08591 0 0 1 1817 660.284)"/><path d="M230.638 125.57C228.929 125.57 227.221 127.278 227.221 128.986L227.221 151.196C227.221 152.904 228.929 154.613 230.638 154.613 232.346 154.613 234.055 152.904 234.055 151.196L234.055 128.986C234.055 127.278 232.346 125.57 230.638 125.57M230.638 160.592C225.513 160.592 221.242 156.321 221.242 151.196L221.242 128.986C221.242 123.861 225.513 119.59 230.638 119.59 235.763 119.59 240.034 123.861 240.034 128.986L240.034 151.196C240.034 156.321 235.763 160.592 230.638 160.592" fill="#36A5FF" transform="matrix(1.08591 0 0 1 1817 660.284)"/><path d="M243.451 158.03C240.034 158.03 236.617 154.613 236.617 151.196L236.617 136.674C236.617 133.257 240.034 129.841 243.451 129.841 246.868 129.841 250.285 133.257 250.285 136.674L250.285 151.196C250.285 154.613 247.722 158.03 243.451 158.03" fill="#FFFFFF" transform="matrix(1.08591 0 0 1 1817 660.284)"/><path d="M243.451 133.257C241.743 133.257 240.034 134.966 240.034 136.674L240.034 151.196C240.034 152.904 241.743 154.613 243.451 154.613 245.16 154.613 246.868 152.904 246.868 151.196L246.868 136.674C247.722 134.112 246.014 133.257 243.451 133.257M243.451 160.592C238.326 160.592 234.055 156.321 234.055 151.196L234.055 136.674C234.055 131.549 238.326 127.278 243.451 127.278 248.576 127.278 252.847 131.549 252.847 136.674L252.847 151.196C253.702 156.321 249.431 160.592 243.451 160.592" fill="#36A5FF" transform="matrix(1.08591 0 0 1 1817 660.284)"/><path d="M250.285 144.362 250.285 173.406C250.285 182.802 242.597 190.49 233.201 190.49L213.554 190.49C204.157 190.49 196.469 182.802 196.469 173.406L196.469 144.362" fill="#FFFFFF" transform="matrix(1.08591 0 0 1 1817 660.284)"/><path d="M234.055 193.052 213.554 193.052C202.449 193.052 193.907 184.51 193.907 173.406L193.907 144.362 199.886 144.362 199.886 173.406C199.886 181.093 205.866 187.073 213.554 187.073L234.055 187.073C241.743 187.073 247.722 181.093 247.722 173.406L247.722 144.362 253.702 144.362 253.702 173.406C253.702 184.51 244.305 193.052 234.055 193.052" fill="#36A5FF" transform="matrix(1.08591 0 0 1 1817 660.284)"/><path d="M44.4192 224.658C42.7107 226.367 40.1481 227.221 38.4397 227.221 35.0228 227.221 31.6059 224.658 29.8975 221.242 28.1891 217.825 29.0433 213.554 31.6059 210.991 34.1686 208.428 37.5854 207.574 41.0023 209.283 44.4192 210.991 46.1276 214.408 46.1276 217.825 46.9818 220.387 46.1276 222.95 44.4192 224.658M60.6492 213.554C60.6492 211.845 58.9408 210.137 57.2324 210.137 55.5239 210.137 54.6697 209.283 53.8155 208.428 52.9613 207.574 52.9613 205.866 52.9613 204.157 53.8155 199.886 53.8155 199.886 50.3987 197.324L47.836 196.469C46.1276 194.761 42.7107 194.761 41.0023 197.324 38.4397 199.032 37.5854 199.032 35.0228 197.324 33.3144 195.615 30.7517 194.761 28.1891 196.469L24.7722 199.032C23.0638 199.886 22.2096 201.595 23.0638 203.303 23.918 207.574 22.2096 210.137 18.7927 210.137 17.0843 210.137 16.2301 210.991 16.2301 212.699L16.2301 222.096C16.2301 223.804 17.0843 225.513 19.6469 225.513 21.3554 225.513 22.2096 226.367 23.0638 227.221 23.918 228.075 23.918 229.784 23.918 231.492 23.0638 235.763 23.0638 235.763 26.4806 238.326 27.3349 238.326 27.3349 239.18 28.1891 239.18 29.8975 240.888 32.4602 240.034 34.1686 238.326 36.7312 235.763 37.5854 235.763 41.0023 238.326 42.7107 239.18 43.5649 240.034 45.2734 240.888L52.9613 235.763C53.8155 234.909 53.8155 234.055 52.9613 232.346 51.2529 228.929 53.8155 225.513 57.2324 225.513 58.9408 225.513 59.795 224.658 59.795 222.95 60.6492 219.533 60.6492 216.97 60.6492 213.554" fill="#FFFFFF" transform="matrix(1.08591 0 0 1 1817 660.284)"/></g></g></g></g></svg>