<svg width="908" height="688" xmlns="http://www.w3.org/2000/svg" xmlns:xlink="http://www.w3.org/1999/xlink" xml:space="preserve" overflow="hidden"><defs><clipPath id="clip0"><rect x="1377" y="347" width="908" height="688"/></clipPath></defs><g clip-path="url(#clip0)" transform="translate(-1377 -347)"><g><g><g><path d="M2191.81 864C2191.37 864 2190.49 864 2190.05 863.56L2132.91 840.703 2066.1 863.56C2065.22 864 2064.34 864 2063.02 863.56L1998.85 840.703 1935.55 863.56C1934.67 864 1933.35 864 1932.03 863.56L1879.73 840.263C1878.85 839.824 1877.97 838.066 1877.97 836.307L1877.97 428.396C1877.97 425.758 1879.73 424 1882.36 424L2247.64 424C2250.27 424 2252.03 425.758 2252.03 428.396L2252.03 836.307C2252.03 838.066 2251.15 839.824 2249.4 840.263L2193.57 863.56C2193.13 864 2192.25 864 2191.81 864ZM1999.29 831.912C1999.73 831.912 2000.16 831.912 2000.6 832.352L2064.78 855.208 2131.59 832.352C2132.47 831.912 2133.79 831.912 2134.67 832.352L2191.37 855.208 2242.8 833.67 2242.8 432.791 1886.76 432.791 1886.76 833.67 1934.67 855.208 1997.53 832.352C1998.41 831.912 1998.85 831.912 1999.29 831.912Z" fill="#2C2C2C"/><path d="M2186.98 523.341 2049.83 523.341C2047.2 523.341 2045.44 521.582 2045.44 518.945 2045.44 516.307 2047.2 514.549 2049.83 514.549L2187.42 514.549C2190.06 514.549 2191.81 516.307 2191.81 518.945 2191.81 521.582 2189.62 523.341 2186.98 523.341ZM2186.98 583.56 2049.83 583.56C2047.2 583.56 2045.44 581.802 2045.44 579.165 2045.44 576.527 2047.2 574.769 2049.83 574.769L2187.42 574.769C2190.06 574.769 2191.81 576.527 2191.81 579.165 2191.81 581.802 2189.62 583.56 2186.98 583.56ZM2186.98 635.428 1929.4 635.428C1926.76 635.428 1925 633.67 1925 631.033 1925 628.395 1926.76 626.637 1929.4 626.637L2186.98 626.637C2189.62 626.637 2191.37 628.395 2191.37 631.033 2191.37 633.67 2189.62 635.428 2186.98 635.428ZM2186.98 695.648 1929.4 695.648C1926.76 695.648 1925 693.89 1925 691.253 1925 688.615 1926.76 686.857 1929.4 686.857L2186.98 686.857C2189.62 686.857 2191.37 688.615 2191.37 691.253 2191.37 693.89 2189.62 695.648 2186.98 695.648ZM2186.98 747.516 1929.4 747.516C1926.76 747.516 1925 745.758 1925 743.121 1925 740.483 1926.76 738.725 1929.4 738.725L2186.98 738.725C2189.62 738.725 2191.37 740.483 2191.37 743.121 2191.37 745.758 2189.62 747.516 2186.98 747.516ZM2023.96 549.042C2021.76 549.042 2019.57 550.8 2019.57 553.437L2019.57 570.58C2019.57 572.778 2021.33 574.976 2023.96 574.976 2026.16 574.976 2028.36 573.217 2028.36 570.58L2028.36 553.437C2028.36 550.8 2026.6 549.042 2023.96 549.042Z" fill="#2C2C2C"/><path d="M2023.96 575.415C2021.33 575.415 2019.13 573.217 2019.13 570.58L2019.13 553.437C2019.13 550.8 2021.33 548.602 2023.96 548.602 2026.6 548.602 2028.8 550.8 2028.8 553.437L2028.8 570.58C2028.8 573.217 2026.6 575.415 2023.96 575.415ZM2023.96 549.921C2021.76 549.921 2020.45 551.679 2020.45 553.437L2020.45 570.58C2020.45 572.778 2022.2 574.097 2023.96 574.097 2026.16 574.097 2027.48 572.338 2027.48 570.58L2027.48 553.437C2027.48 551.239 2026.16 549.921 2023.96 549.921Z" fill="#757575"/><path d="M2025.72 527.943 1974.29 505.965C1972.97 505.525 1972.09 505.525 1970.78 505.965L1919.35 527.943C1917.59 528.822 1916.71 530.58 1916.71 532.338 1916.71 534.097 1917.59 535.855 1919.35 536.294L1934.73 542.888 1934.73 573.657C1934.73 584.206 1951 592.558 1972.53 592.558 1994.07 592.558 2010.34 584.646 2010.34 573.657L2010.34 542.888 2025.72 536.294C2027.48 535.415 2028.36 534.097 2028.36 532.338 2028.36 530.58 2027.48 528.822 2025.72 527.943ZM2002.86 573.217C2002.86 577.613 1991 584.646 1972.53 584.646 1954.07 584.646 1942.2 578.053 1942.2 573.217L1942.2 545.964 1970.78 558.272C1971.22 558.712 1972.09 558.712 1972.53 558.712 1972.97 558.712 1973.85 558.712 1974.29 558.272L2002.86 545.964 2002.86 573.217ZM1972.53 550.36 1929.02 532.338 1972.53 513.877 2016.05 532.338 1972.53 550.36Z" fill="#2C2C2C"/><path d="M1972.53 592.998C1950.56 592.998 1933.85 584.646 1933.85 573.657L1933.85 542.888 1918.91 536.734C1917.15 535.855 1916.27 534.097 1916.27 532.338 1916.27 530.58 1917.59 528.382 1919.35 527.503L1970.78 505.525C1972.09 505.086 1973.41 505.086 1974.73 505.525L2026.16 527.503C2027.92 528.382 2029.24 530.14 2029.24 532.338 2029.24 534.536 2027.92 535.855 2025.72 536.734L2010.78 542.888 2010.78 573.217C2011.22 584.646 1994.51 592.998 1972.53 592.998ZM1972.53 506.404C1972.09 506.404 1971.66 506.404 1971.21 506.844L1919.79 528.822C1918.47 529.261 1917.15 530.58 1917.15 532.338 1917.15 534.097 1918.03 534.976 1919.35 535.855L1935.17 542.448 1935.17 573.657C1935.17 583.767 1951 591.679 1972.53 591.679 1994.07 591.679 2009.9 583.767 2009.9 573.657L2009.9 542.009 2025.72 535.415C2026.6 534.976 2027.48 533.657 2027.48 532.339 2027.48 531.02 2026.6 529.261 2025.28 528.822L1973.85 506.844C1973.41 506.844 1972.97 506.404 1972.53 506.404ZM1972.53 585.525C1953.19 585.525 1941.76 578.492 1941.76 573.657L1941.76 544.646 1971.22 556.954C1972.09 557.393 1973.41 557.393 1974.29 556.954L2003.74 544.646 2003.74 573.217C2003.3 578.492 1991.87 585.525 1972.53 585.525ZM1943.08 546.844 1943.08 573.217C1943.08 577.613 1954.95 583.767 1972.53 583.767 1990.12 583.767 2001.98 577.174 2001.98 573.217L2001.98 546.844 1974.73 558.712C1973.41 559.152 1972.09 559.152 1970.78 558.712L1943.08 546.844ZM1972.53 551.239 1927.26 532.338 1972.09 512.998 2017.37 532.338 1972.53 551.239ZM1930.78 532.338 1972.53 549.921 2014.29 532.338 1972.53 514.756 1930.78 532.339Z" fill="#757575"/></g></g></g><g><g><g><path d="M1884.45 829.528 1708.48 873.936 1467.88 949.828 1385.36 949.828 1391.98 777.828 1405.57 690.669 1497.7 634.329 1774.76 636.318 1852.31 692.326ZM1511.95 506.738C1512.12 549.255 1535.34 588.336 1572.6 608.811 1610.42 629.813 1656.41 629.813 1694.23 608.811 1750.51 578.6 1771.64 508.484 1741.43 452.202 1730.68 432.169 1714.26 415.749 1694.23 404.996 1656.41 383.995 1610.42 383.995 1572.6 404.996 1535.44 425.414 1512.24 464.34 1511.95 506.738Z" fill="#FFFFFF"/><path d="M1851.98 777.828 1851.98 958.445 1777.08 958.445 1483.12 965.073 1404.58 965.073 1408.22 777.828C1409.22 715.136 1456.88 663.064 1519.24 656.534L1497.7 729.443 1542.77 729.443 1519.58 771.532 1628.28 870.954 1636.23 881.227 1644.18 870.954 1752.89 771.532 1730.35 729.112 1774.76 729.112 1753.88 657.859C1810.44 670.114 1850.92 719.963 1851.31 777.828Z" fill="#E7E7E6"/><path d="M1793.32 950.823 1807.9 950.823 1807.9 958.114 1792.99 958.114ZM1636.56 638.969C1565 639.007 1506.33 582.239 1504 510.715 1505.09 438.28 1564.12 380.132 1636.56 380.141 1708.63 380.122 1767.5 437.676 1769.13 509.721 1767.5 581.765 1708.63 639.319 1636.56 639.301ZM1636.56 395.717C1572.44 394.979 1519.82 446.268 1518.91 510.383 1520.36 574.108 1572.83 624.799 1636.56 624.056 1700.17 624.802 1752.59 574.309 1754.21 510.715 1753.85 446.472 1701.48 394.686 1637.23 395.048 1637.01 395.049 1636.79 395.051 1636.56 395.054Z" fill="#495460"/><path d="M1636.56 607.817C1581.66 608.926 1536.26 565.321 1535.15 510.423 1535.15 510.41 1535.15 510.397 1535.15 510.383 1538.35 454.467 1586.28 411.733 1642.19 414.933 1693.64 417.878 1734.7 458.937 1737.64 510.383 1736.55 565.166 1691.35 608.741 1636.56 607.817Z" fill="#FDDA43"/><path d="M1883.13 958.114 1793.65 958.114 1793.65 858.692 1807.9 858.692 1807.9 943.532 1867.88 943.532 1867.88 777.828C1866.79 700.351 1803.19 638.379 1725.71 639.301L1534.16 639.301C1456.68 638.379 1393.08 700.351 1391.98 777.828L1391.98 949.497 1451.97 949.497 1451.97 859.686 1468.21 859.686 1468.21 964.742 1377.07 964.742 1377.07 777.828C1377.8 692.173 1447.83 623.325 1533.48 624.052 1533.6 624.053 1533.71 624.055 1533.83 624.056L1726.04 624.056C1811.7 623.138 1881.88 691.829 1882.79 777.483 1882.8 777.598 1882.8 777.713 1882.8 777.828L1882.8 958.776Z" fill="#495460"/><path d="M1636.56 631.678 1579.56 631.678 1620.32 697.959 1651.14 697.959 1692.24 631.678ZM1666.39 761.258 1636.56 838.476 1606.4 757.281 1621.32 697.628 1651.81 697.628Z" fill="#89C3EB"/><path d="M1655.78 707.902 1617.01 707.902 1566.97 624.056 1705.83 624.056ZM1626.62 690.337 1645.84 690.337 1678.98 638.638 1594.81 638.638Z" fill="#495460"/><path d="M1662.74 775.509 1646.5 704.919 1626.95 704.919 1609.06 773.189 1594.14 769.875 1610.38 690.337 1659.1 690.337 1675.34 771.532ZM1622.97 898.129 1637.89 898.129 1637.89 958.114 1622.97 958.114Z" fill="#495460"/><path d="M1807.9 958.114 1792.99 958.114 1792.99 943.532 1867.88 943.532 1867.88 777.828C1866.79 700.351 1803.19 638.379 1725.71 639.301L1636.56 639.301 1636.56 624.056C1700.3 624.985 1752.92 574.44 1754.54 510.715 1754.18 446.472 1701.81 394.684 1637.57 395.044 1637.23 395.046 1636.9 395.049 1636.56 395.054 1572.32 394.502 1519.8 446.133 1519.24 510.375 1519.24 510.378 1519.24 510.38 1519.24 510.383 1520.69 573.978 1572.95 624.616 1636.56 624.056L1636.56 638.306 1534.49 638.306C1457.62 637.208 1394.42 698.629 1393.32 775.494 1393.31 776.272 1393.31 777.05 1393.31 777.828L1393.31 964.742 1465.56 964.742 1465.56 958.114 1452.3 958.114 1452.3 955.462 1377.07 958.114 1377.07 777.828C1377.79 692.173 1447.82 623.321 1533.47 624.044 1533.81 624.047 1534.15 624.051 1534.49 624.056L1575.92 624.056C1532.74 602.457 1505.16 558.65 1504.33 510.383 1505.59 438.207 1564.38 380.31 1636.56 380.141 1708.85 379.222 1768.2 437.081 1769.12 509.372 1769.12 509.488 1769.12 509.604 1769.13 509.721 1768.71 558.368 1740.88 602.617 1697.21 624.056L1726.37 624.056C1812.03 623.138 1882.21 691.829 1883.13 777.483 1883.13 777.598 1883.13 777.713 1883.13 777.828L1883.13 958.776Z" fill="#495460"/><path d="M1737.64 510.383C1736.7 562.276 1695.99 604.711 1644.18 607.817L1627.95 607.817C1576.4 604.381 1536.07 562.037 1535.15 510.383 1535.15 454.467 1580.48 409.139 1636.4 409.139 1692.31 409.139 1737.64 454.467 1737.64 510.383Z" fill="#F9E5E5"/><path d="M1636.56 838.807 1575.92 624.056 1528.52 624.056 1497.7 728.78 1542.77 728.78 1517.92 777.828 1626.62 873.274 1636.23 883.547 1644.18 873.274ZM1537.14 769.875 1566.97 714.53 1518.25 714.53 1539.13 639.963 1557.36 639.963 1615.68 838.807Z" fill="#495460"/><path d="M1774.76 729.112 1744.93 626.044 1698.54 624.056 1636.56 838.807 1625.29 868.634 1636.56 882.222 1647.83 870.291 1756.53 777.828 1730.68 730.769 1774.76 730.769ZM1732.34 769.875 1654.79 836.156 1713.12 637.312 1729.36 637.312 1751.23 712.21 1705.16 711.547Z" fill="#495460"/><path d="M1967.31 901.775 1979.57 913.374 2024.64 958.776C2036.34 965.962 2039.99 981.268 2032.81 992.965 2025.62 1004.66 2010.32 1008.32 1998.62 1001.13 1994.94 998.876 1991.92 995.699 1989.84 991.917L1935.49 937.567C1933.7 935.736 1930.76 935.706 1928.93 937.5 1928.91 937.522 1928.89 937.544 1928.86 937.567 1876.79 967.067 1810.66 948.766 1781.16 896.69 1751.66 844.614 1769.96 778.484 1822.03 748.984 1874.11 719.483 1940.24 737.784 1969.74 789.86 1977.06 802.784 1981.65 817.076 1983.21 831.848 1985.92 854.868 1981.03 878.142 1969.29 898.129L1969.29 900.118C1969.26 900.669 1969.26 901.223 1969.29 901.775ZM1874.51 919.008C1915.69 919.007 1949.08 885.622 1949.08 844.44 1949.08 803.259 1915.69 769.874 1874.51 769.875 1833.46 769.875 1800.13 803.058 1799.95 844.11 1799.58 885.29 1832.67 918.97 1873.85 919.337 1873.96 919.338 1874.07 919.339 1874.18 919.339Z" fill="#FFD452"/><path d="M1802.27 844.11C1802.08 884.193 1834.43 916.834 1874.51 917.016 1914.6 917.197 1947.24 884.85 1947.42 844.767 1947.6 804.683 1915.25 772.042 1875.17 771.861 1874.84 771.859 1874.51 771.86 1874.18 771.863 1834.49 772.225 1802.45 804.413 1802.27 844.11Z" fill="#FEFEFE"/><path d="M2008.4 1009.81C1998.98 1009.65 1990.03 1005.71 1983.55 998.877L1970.95 986.615 1930.52 945.852C1874.5 976.552 1804.21 956.028 1773.51 900.011 1768.11 890.174 1764.18 879.604 1761.83 868.634 1755.03 838.884 1760.65 807.643 1777.41 782.137 1794.79 755.586 1822.16 737.181 1853.3 731.1 1916.22 719.066 1976.99 760.318 1989.02 823.238 1989.48 825.653 1989.87 828.083 1990.17 830.522 1992.78 854.029 1988.03 877.765 1976.59 898.46L1985.2 906.746 2030.27 951.486C2042.9 964.372 2042.9 984.996 2030.27 997.882 2024.42 1004.94 2015.9 1009.26 2006.74 1009.81ZM1931.18 929.613C1934.64 929.723 1937.89 931.287 1940.13 933.921L1981.89 976.672 1994.48 988.934C1998.1 992.803 2003.11 995.069 2008.4 995.231 2012.96 995.477 2017.41 993.793 2020.66 990.592 2027.62 984.095 2027.99 973.19 2021.49 966.234 2021.23 965.948 2020.95 965.672 2020.66 965.405L1973.6 919.339 1965.65 910.391 1959.02 904.094 1959.02 899.786 1966.64 899.786 1959.35 897.466 1959.35 894.815C1970.62 876.461 1975.62 854.946 1973.6 833.505 1968.81 778.805 1920.59 738.345 1865.89 743.136 1834.41 745.893 1806.12 763.445 1789.67 790.422 1774.64 812.288 1769.25 839.365 1774.76 865.32 1785.51 919.166 1837.88 954.099 1891.73 943.345 1902.59 941.176 1913.01 937.206 1922.57 931.601 1924.77 930.294 1927.29 929.607 1929.86 929.613ZM1874.18 926.961C1828.42 926.961 1791.33 889.868 1791.33 844.11 1791.33 798.352 1828.42 761.258 1874.18 761.258 1896.2 761.257 1917.35 769.813 1933.17 785.119 1948.91 800.683 1957.64 821.978 1957.36 844.11 1957.18 889.921 1919.99 926.962 1874.18 926.961ZM1874.18 777.828C1837.57 777.828 1807.9 807.504 1807.9 844.11 1807.9 880.716 1837.57 910.391 1874.18 910.391 1910.79 910.391 1940.46 880.716 1940.46 844.11 1940.21 826.627 1933.07 809.95 1920.58 797.713 1908.34 785.225 1891.66 778.078 1874.18 777.828Z" fill="#4D4D4D"/><path d="M1816.85 844.11C1817.03 812.521 1842.59 786.958 1874.18 786.776L1874.18 802.684C1851.59 803.374 1833.45 821.523 1832.76 844.11Z" fill="#89C3EB"/><path d="M1518.91 549.158C1511.29 549.158 1510.96 546.507 1505.66 539.879 1500.38 532.693 1497.69 523.932 1498.03 515.023L1498.03 432.503C1498.03 404.333 1506.32 381.135 1531.18 381.135 1530.26 373.001 1533.2 364.909 1539.13 359.262 1547.13 351.497 1557.81 347.106 1568.96 347L1702.84 347C1746.83 351.746 1780.15 388.922 1780.06 433.166L1780.06 512.703C1780.57 521.124 1777.84 529.421 1772.44 535.902 1767.14 541.867 1766.81 544.85 1759.51 544.518L1759.51 463.655C1738.61 486.645 1707.82 498.02 1676.99 494.144 1632.78 494.5 1589.44 481.82 1552.39 457.69 1548.85 465.783 1543.92 473.188 1537.8 479.562 1533.32 485.023 1526.13 487.464 1519.24 485.859Z" fill="#495460"/></g></g></g></g></svg>