<svg width="808" height="746" xmlns="http://www.w3.org/2000/svg" xmlns:xlink="http://www.w3.org/1999/xlink" xml:space="preserve" overflow="hidden"><g transform="translate(-1082 -1382)"><g><g><g><path d="M94.3143 0 94.3143 558.77 150.722 558.77C150.722 572.484 149.816 585.551 150.722 606.769 150.992 612.747 154.973 617.917 160.684 619.706 162.184 620.215 163.757 620.478 165.341 620.482 169.912 620.463 174.196 618.249 176.856 614.531L191.216 596.289C193.933 592.925 196.779 589.562 199.626 585.81 199.915 585.688 200.242 585.688 200.531 585.81 200.817 585.671 201.151 585.671 201.437 585.81 207.259 593.314 215.539 604.052 222.784 612.849 226.552 617.639 232.971 619.465 238.697 617.377 244.334 615.512 248.241 610.37 248.529 604.44 248.529 586.715 248.529 576.754 249.435 566.792L249.435 558.77 526.685 558.77 526.685 0ZM230.158 525.521C226.956 527.943 223.482 529.983 219.808 531.602 219.014 531.802 218.235 532.062 217.479 532.378 206.501 536.183 194.561 536.183 183.583 532.378 178.985 530.848 174.629 528.669 170.646 525.909 168.215 524.193 165.923 522.29 163.789 520.217L163.012 519.311C143.627 498.897 144.462 466.633 164.876 447.247 185.291 427.862 217.555 428.697 236.94 449.111 255.338 468.487 255.653 498.781 237.662 518.535 235.45 521.157 232.931 523.502 230.158 525.521ZM235.721 566.274C235.721 576.365 235.074 586.327 234.816 604.31 234.79 604.781 234.484 605.189 234.039 605.345 233.661 605.648 233.124 605.648 232.746 605.345 225.63 596.548 217.35 585.939 211.528 578.565 208.854 574.965 204.627 572.852 200.143 572.872 195.695 572.881 191.498 574.932 188.758 578.435L180.478 588.785C175.821 594.607 171.163 600.3 165.729 607.415 165.351 607.718 164.814 607.718 164.436 607.415 163.946 607.243 163.63 606.769 163.659 606.251 163.659 585.163 163.659 572.225 164.306 558.512L164.306 538.2C169.187 541.286 174.449 543.721 179.961 545.445 186.22 547.55 192.764 548.684 199.367 548.809 206.013 548.698 212.602 547.563 218.902 545.445 224.741 543.601 230.31 540.991 235.462 537.682L235.462 558.77C235.462 560.97 235.721 563.816 235.721 566.274ZM513.619 545.445 249.435 545.445 249.435 525.521C258.91 514.148 264.126 499.829 264.184 485.027 264.184 449.301 235.222 420.339 199.496 420.339 163.77 420.339 134.809 449.301 134.809 485.027 134.841 500.82 140.743 516.036 151.369 527.721L150.592 540.658 150.592 545.574 107.64 545.574 107.64 12.9375 513.36 12.9375Z" fill="#2C2C2C" transform="matrix(1.00161 0 0 1 1175 1465)"/><path d="M295.234 116.437C300.565 116.427 305.811 115.093 310.5 112.556 315.337 115.194 320.775 116.532 326.284 116.437L327.707 116.437C345.988 115.826 360.312 100.51 359.7 82.2282 359.491 75.9565 357.503 69.8735 353.97 64.6875 347.468 54.6877 336.125 48.9172 324.214 49.5506L324.214 59.7712C336.959 59.0049 347.913 68.7159 348.679 81.4613 349.445 94.2067 339.734 105.16 326.989 105.926 326.754 105.941 326.519 105.951 326.284 105.958 323.887 106.03 321.492 105.769 319.168 105.182 331.42 91.6962 330.42 70.8317 316.935 58.5796 314.126 56.0282 310.899 53.9804 307.395 52.5262 294.999 47.4877 280.791 50.3394 271.299 59.7712 258.292 72.6314 258.172 93.6015 271.032 106.609 277.412 113.063 286.161 116.615 295.234 116.437ZM274.534 74.3906C278.051 66.0205 286.157 60.498 295.234 60.2887 307.809 60.2467 318.038 70.4071 318.08 82.9825 318.102 89.5441 315.292 95.7962 310.371 100.136 305.807 96.0204 303.101 90.2347 302.867 84.0937L292.776 84.0937C293.091 91.6836 296.068 98.9202 301.185 104.535 288.96 107.482 276.66 99.9604 273.713 87.7351 272.645 83.305 272.931 78.6564 274.534 74.3906ZM340.386 445.697 433.535 445.697 433.535 459.022 340.386 459.022ZM154.215 206.224 433.535 206.224 433.535 219.549 154.215 219.549ZM154.215 246.071 433.535 246.071 433.535 259.397 154.215 259.397ZM267.289 365.872 433.535 365.872 433.535 379.198 267.289 379.198ZM154.215 325.896 433.535 325.896 433.535 339.221 154.215 339.221ZM154.215 166.247 433.535 166.247 433.535 179.572 154.215 179.572ZM313.864 405.72 433.535 405.72 433.535 419.046 313.864 419.046ZM154.215 286.048 433.535 286.048 433.535 299.374 154.215 299.374ZM219.42 448.931C214.25 446.538 208.289 446.538 203.119 448.931 200.895 450.164 199.024 451.945 197.685 454.106 195.407 451.055 192.375 448.648 188.887 447.12 184.551 445.049 179.51 445.049 175.174 447.12 169.119 451.308 165.763 458.413 166.376 465.75 165.865 469.744 165.865 473.787 166.376 477.782 167.102 481.081 168.187 484.292 169.611 487.355 174.92 499.126 182.279 509.858 191.346 519.052 191.992 519.052 192.381 520.217 193.027 520.734L198.073 525.65 202.601 520.217 203.766 518.923 205.965 516.206C208.734 512.706 211.715 509.379 214.892 506.244 223.178 499.091 229.389 489.841 232.875 479.464 235.272 471.554 233.939 462.984 229.252 456.176 226.558 453.056 223.198 450.58 219.42 448.931ZM220.326 476.229C217.281 484.328 212.255 491.534 205.706 497.188 202.782 500.007 200.018 502.987 197.426 506.115 191.102 498.97 185.91 490.898 182.031 482.18 180.987 480.085 180.205 477.869 179.702 475.582 179.375 472.659 179.375 469.708 179.702 466.785 179.702 464.715 179.702 459.928 182.031 459.152 182.537 459.001 183.077 459.001 183.583 459.152 186.559 460.445 188.758 463.68 190.828 469.631 191.944 472.966 195.074 475.209 198.591 475.194 201.924 475.196 204.911 473.136 206.094 470.019 206.704 468.467 207.18 466.866 207.517 465.232 208.294 462.645 208.682 460.963 209.587 460.575 211.153 459.883 212.938 459.883 214.504 460.575 216.422 461.41 218.109 462.697 219.42 464.327 221.505 467.954 221.838 472.329 220.326 476.229Z" fill="#2C2C2C" transform="matrix(1.00161 0 0 1 1175 1465)"/></g></g></g><g><g><g><path d="M207.607 229.472 229.503 207.712 252.424 230.775 230.527 252.536Z" fill="#334A5E" transform="matrix(1.00297 0 0 1 1486 1625)"/><path d="M325.284 277.762 284.015 236.229C270.785 222.934 249.262 222.868 235.966 236.098 222.67 249.328 222.604 270.851 235.834 284.147L277.104 325.679C290.334 338.975 311.857 339.041 325.153 325.811 338.448 312.581 338.514 291.058 325.284 277.762Z" fill="#FFD15C" transform="matrix(1.00297 0 0 1 1486 1625)"/><path d="M325.153 325.811C311.857 339.041 290.334 338.975 277.104 325.679L325.284 277.762C338.514 291.058 338.448 312.581 325.153 325.811Z" fill="#F8B64C" transform="matrix(1.00297 0 0 1 1486 1625)"/><path d="M226.093 39.953C175.082-11.3869 91.8194-11.6502 40.5453 39.3606-10.7945 90.3714-11.0578 173.634 39.953 224.908 90.9637 276.248 174.227 276.511 225.501 225.501 276.84 174.556 277.038 91.2928 226.093 39.953Z" fill="#40596B" transform="matrix(1.00297 0 0 1 1486 1625)"/><path d="M205.886 60.0282C165.933 19.8777 100.771 19.6145 60.6206 59.5674 20.4701 99.5204 20.2727 164.683 60.1598 204.833 100.113 244.983 165.275 245.181 205.425 205.294 245.576 165.407 245.773 100.244 205.886 60.0282Z" fill="#FFFFFF" transform="matrix(1.00297 0 0 1 1486 1625)"/><path d="M185.679 80.1034C156.85 51.0766 109.723 50.945 80.6958 79.7743 51.669 108.604 51.5373 155.731 80.3667 184.758 109.196 213.785 156.323 213.916 185.35 185.087 214.377 156.258 214.509 109.196 185.679 80.1034Z" fill="#84DBFF" transform="matrix(1.00297 0 0 1 1486 1625)"/><path d="M169.553 96.0977C149.478 75.9567 116.765 75.8251 96.6243 95.9003 76.4833 115.975 76.3516 148.688 96.4268 168.829 116.502 188.97 149.215 189.102 169.356 169.027 189.497 149.017 189.628 116.305 169.553 96.0977Z" fill="#54C0EB" transform="matrix(1.00297 0 0 1 1486 1625)"/><path d="M102.416 117.555C94.9788 124.927 82.9337 124.861 75.5618 117.489 68.1899 110.052 68.2557 98.0065 75.6276 90.6346 83.0653 83.2628 95.1104 83.3286 102.482 90.7005 109.854 98.1382 109.854 110.183 102.416 117.555Z" fill="#FFFFFF" transform="matrix(1.00297 0 0 1 1486 1625)"/></g></g></g></g></svg>