<svg width="1572" height="1721" xmlns="http://www.w3.org/2000/svg" xmlns:xlink="http://www.w3.org/1999/xlink" xml:space="preserve" overflow="hidden"><g transform="translate(-1205 -273)"><g><g><g><path d="M1226.17 268.319C1226.17 175.324 1150.78 99.9382 1057.78 99.9382L513.251 99.9382C420.257 99.9382 344.871 175.324 344.871 268.319L344.871 1302.98C344.871 1395.98 420.257 1471.36 513.251 1471.36L1057.78 1471.36C1150.78 1471.36 1226.17 1395.98 1226.17 1302.98L1226.17 268.319ZM406.137 363.855 1164.9 363.855 1164.9 1176.03 406.137 1176.03 406.137 363.855ZM513.289 161.205 1057.75 161.205C1116.93 161.205 1164.9 209.178 1164.9 268.357L1164.9 302.589 406.139 302.589 406.139 268.357C406.137 209.179 454.11 161.205 513.289 161.205ZM1057.75 1410.1 513.289 1410.1C454.11 1410.1 406.137 1362.12 406.137 1302.95L406.137 1235.72 1164.9 1235.72 1164.9 1302.95C1164.9 1362.12 1116.93 1410.1 1057.75 1410.1Z" fill="#272636" transform="matrix(1 0 0 1.00064 1205 273)"/><path d="M787.802 1274.09C762.153 1274.09 741.285 1294.96 741.285 1320.61 741.285 1346.26 762.153 1367.13 787.802 1367.13 813.451 1367.13 834.316 1346.26 834.316 1320.61 834.316 1294.96 813.451 1274.09 787.802 1274.09Z" fill="#272636" transform="matrix(1 0 0 1.00064 1205 273)"/></g></g></g><g><g><g><path d="M1818.01 1219.24C1800.5 1219.24 1785.75 1204.5 1785.75 1186.98L1785.75 916.015C1785.75 898.503 1800.5 883.757 1818.01 883.757L2184.83 883.757C2202.34 883.757 2217.09 898.503 2217.09 916.015L2217.09 1186.06C2217.09 1203.57 2202.34 1218.32 2184.83 1218.32L1818.01 1218.32Z" fill="#FFFFFF"/><path d="M2184.83 897.582C2194.97 897.582 2203.27 905.877 2203.27 916.015L2203.27 1186.06C2203.27 1196.2 2194.97 1204.5 2184.83 1204.5L1818.01 1204.5C1807.87 1204.5 1799.58 1196.2 1799.58 1186.06L1799.58 916.015C1799.58 905.877 1807.87 897.582 1818.01 897.582L2184.83 897.582M2184.83 869.932 1818.01 869.932C1792.2 869.932 1771.93 890.208 1771.93 916.015L1771.93 1186.06C1771.93 1211.87 1792.2 1232.15 1818.01 1232.15L2184.83 1232.15C2210.64 1232.15 2230.92 1211.87 2230.92 1186.06L2230.92 916.015C2230.92 891.13 2210.64 869.932 2184.83 869.932Z" fill="#154E84"/><path d="M2001.42 1003.57 1825.38 1003.57C1820.77 1003.57 1816.17 998.965 1816.17 994.357 1816.17 989.748 1819.85 985.14 1825.38 985.14L2001.42 985.14C2006.03 985.14 2010.64 988.827 2010.64 994.357 2010.64 999.887 2006.03 1003.57 2001.42 1003.57ZM1992.2 1060.72 1825.38 1060.72C1820.77 1060.72 1816.17 1056.11 1816.17 1051.5 1816.17 1046.89 1819.85 1042.28 1825.38 1042.28L1992.2 1042.28C1996.81 1042.28 2001.42 1045.97 2001.42 1051.5 2001.42 1057.03 1997.73 1060.72 1992.2 1060.72ZM1953.49 1116.94 1825.38 1116.94C1820.77 1116.94 1816.17 1112.33 1816.17 1107.72 1816.17 1103.11 1819.85 1098.51 1825.38 1098.51L1953.49 1098.51C1958.1 1098.51 1962.71 1102.19 1962.71 1107.72 1962.71 1113.25 1958.1 1116.94 1953.49 1116.94Z" fill="#52ABE2"/><path d="M2006.03 1139.98 2006.95 1129.84C2009.72 1093.9 2034.6 1063.48 2068.7 1054.27 2053.96 1048.74 2042.9 1036.75 2037.37 1022.93 2031.84 1009.1 2031.84 992.513 2038.29 978.688 2047.5 957.49 2068.7 944.587 2091.74 944.587 2100.04 944.587 2107.41 946.43 2115.71 949.195 2145.2 962.098 2158.1 996.2 2145.2 1025.69 2139.67 1038.6 2128.61 1049.66 2115.71 1055.19 2149.81 1064.4 2174.7 1094.82 2176.54 1130.76L2177.46 1140.9 2006.03 1140.9Z" fill="#FFC200"/><path d="M2091.74 952.882C2098.2 952.882 2104.65 953.803 2111.1 957.49 2135.98 968.55 2147.04 997.122 2135.98 1022.01 2131.38 1033.07 2122.16 1042.28 2111.1 1046.89 2106.49 1048.74 2104.65 1054.27 2106.49 1058.87 2107.41 1061.64 2109.26 1063.48 2112.02 1063.48 2142.44 1072.7 2164.56 1099.43 2167.32 1130.76L2016.17 1130.76C2018.93 1098.51 2040.13 1071.78 2071.47 1063.48 2076.08 1061.64 2078.84 1057.03 2077 1052.42 2076.08 1049.66 2074.23 1047.81 2072.39 1046.89 2047.5 1035.83 2036.44 1007.26 2047.5 982.375 2054.88 963.02 2073.31 952.882 2091.74 952.882M2091.74 934.448C2065.02 934.448 2041.05 950.117 2029.99 974.08 2022.62 990.67 2022.62 1009.1 2029.07 1025.69 2032.76 1035.83 2039.21 1045.05 2047.5 1052.42 2018.93 1067.17 1999.58 1096.66 1997.73 1128.92L1995.89 1148.28 2187.6 1148.28 2185.75 1128.92C2182.99 1096.66 2163.64 1067.17 2135.98 1052.42 2143.36 1045.97 2149.81 1037.68 2153.5 1028.46 2168.24 994.357 2153.5 954.725 2119.4 939.978 2110.18 936.292 2100.96 934.448 2091.74 934.448Z" fill="#154E84"/></g></g></g><g><g><g><path d="M2187.47 798.113C2183.3 798.113 2179.92 794.73 2179.92 790.557 2179.92 786.383 2183.3 783 2187.47 783L2237.85 783C2248.98 783 2258 792.021 2258 803.151L2258 853.528C2258 857.702 2254.62 861.085 2250.44 861.085 2246.27 861.085 2242.89 857.702 2242.89 853.528L2242.89 803.151C2242.89 800.369 2240.63 798.113 2237.85 798.113L2187.47 798.113ZM2242.89 1246.47C2242.89 1242.3 2246.27 1238.92 2250.44 1238.92 2254.62 1238.92 2258 1242.3 2258 1246.47L2258 1296.85C2258 1307.98 2248.98 1317 2237.85 1317L2187.47 1317C2183.3 1317 2179.92 1313.62 2179.92 1309.44 2179.92 1305.27 2183.3 1301.89 2187.47 1301.89L2237.85 1301.89C2240.63 1301.89 2242.89 1299.63 2242.89 1296.85L2242.89 1246.47ZM1794.53 1301.89C1798.7 1301.89 1802.08 1305.27 1802.08 1309.44 1802.08 1313.62 1798.7 1317 1794.53 1317L1744.15 1317C1733.02 1317 1724 1307.98 1724 1296.85L1724 1246.47C1724 1242.3 1727.38 1238.92 1731.56 1238.92 1735.73 1238.92 1739.11 1242.3 1739.11 1246.47L1739.11 1296.85C1739.11 1299.63 1741.37 1301.89 1744.15 1301.89L1794.53 1301.89ZM1739.11 853.528C1739.11 857.702 1735.73 861.085 1731.56 861.085 1727.38 861.085 1724 857.702 1724 853.528L1724 803.151C1724 792.021 1733.02 783 1744.15 783L1795.79 783C1799.96 783 1803.34 786.383 1803.34 790.557 1803.34 794.73 1799.96 798.113 1795.79 798.113L1744.15 798.113C1741.37 798.113 1739.11 800.369 1739.11 803.151L1739.11 853.528Z" fill="#666666"/></g></g></g><g><g><g><path d="M148.5 24.75C216.847 24.75 272.25 80.1529 272.25 148.5 272.25 216.847 216.847 272.25 148.5 272.25 80.1529 272.25 24.75 216.847 24.75 148.5 24.75 80.1529 80.1529 24.75 148.5 24.75ZM215.585 90.3994 131.002 174.982 81.4151 125.396 63.9169 142.906 130.989 209.979 233.083 107.898 215.585 90.3994Z" fill="#5AA37C" transform="matrix(1.00337 0 0 1 1329 1697)"/></g></g></g><text font-family="Arial,Arial_MSFontService,sans-serif" font-weight="700" font-size="92" transform="matrix(1 0 0 1 1659.7 1887)">KYC Validation Pass</text></g></svg>