<svg width="631" height="624" xmlns="http://www.w3.org/2000/svg" xmlns:xlink="http://www.w3.org/1999/xlink" xml:space="preserve" overflow="hidden"><defs><clipPath id="clip0"><rect x="717" y="1504" width="631" height="624"/></clipPath></defs><g clip-path="url(#clip0)" transform="translate(-717 -1504)"><path d="M101.47 6.67989 522.523 6.67989 522.523 554.714 101.47 554.714Z" fill="#FFFFFF" transform="matrix(1.01122 0 0 1 717 1504)"/><path d="M529.203 561.401 94.7909 561.401 94.7909 0 529.203 0ZM108.157 548.056 515.836 548.056 515.836 13.3665 108.157 13.3665Z" fill="#684C4B" transform="matrix(1.01122 0 0 1 717 1504)"/><path d="M296.663 116.762C278.314 116.762 263.439 101.887 263.439 83.5377 263.439 65.1886 278.314 50.3137 296.663 50.3137 315.012 50.3137 329.887 65.1886 329.887 83.5377 329.867 101.879 315.004 116.742 296.663 116.762ZM296.663 60.5688C283.958 60.5688 273.659 70.8678 273.659 83.5724 273.659 96.277 283.958 106.576 296.663 106.576 309.368 106.576 319.667 96.277 319.667 83.5724 319.667 83.5702 319.667 83.5679 319.667 83.5657 319.667 70.8577 309.371 60.5525 296.663 60.5407Z" fill="#684C4B" transform="matrix(1.01122 0 0 1 717 1504)"/><path d="M327.295 116.762C309.535 116.742 294.933 102.755 294.148 85.0129L304.354 84.5632C304.919 97.2525 315.663 107.082 328.352 106.517 341.041 105.953 350.871 95.2087 350.306 82.5194 349.737 69.8409 338.709 59.9015 326.312 60.5688L325.855 50.349C344.174 49.3062 359.87 63.3117 360.913 81.6312 361.956 99.9506 347.95 115.647 329.631 116.69 329.356 116.705 329.081 116.717 328.805 116.726 328.299 116.748 327.794 116.762 327.295 116.762ZM154.938 167.082 435.635 167.082 435.635 180.449 154.938 180.449ZM154.938 207.183 435.635 207.183 435.635 220.55 154.938 220.55ZM154.938 247.283 435.635 247.283 435.635 260.65 154.938 260.65ZM154.938 287.384 435.635 287.384 435.635 300.751 154.938 300.751ZM154.938 327.485 435.635 327.485 435.635 340.851 154.938 340.851ZM268.559 367.585 435.642 367.585 435.642 380.952 268.559 380.952ZM315.34 407.686 435.642 407.686 435.642 421.053 315.34 421.053ZM342.074 447.786 435.642 447.786 435.642 461.153 342.074 461.153Z" fill="#684C4B" transform="matrix(1.01122 0 0 1 717 1504)"/><path d="M159.848 528.753C158.133 561.724 156.982 573.813 157.523 609.531 157.635 616.983 167.131 620.116 171.655 614.188L171.739 614.075C180.26 602.836 186.911 594.962 194.68 585.079 197.362 581.67 202.299 581.08 205.708 583.762 206.214 584.16 206.669 584.619 207.063 585.128 212.858 592.588 221.21 603.286 228.367 612.15 232.989 617.868 242.226 614.651 242.352 607.297 243.006 570.336 243.659 567.021 244.305 527.966Z" fill="#ED758D" transform="matrix(1.01122 0 0 1 717 1504)"/><path d="M165.488 623.993C163.908 623.991 162.339 623.737 160.838 623.242 154.917 621.347 150.884 615.86 150.843 609.643 150.386 579.566 151.131 565.862 152.381 543.167L153.498 522.129 251.133 521.238 251.021 528.093C250.683 548.196 250.318 558.858 250.016 569.479 249.693 579.502 249.384 589.49 249.068 607.409 248.938 615.45 242.314 621.862 234.273 621.732 229.966 621.663 225.911 619.69 223.198 616.344 216.012 607.444 207.626 596.711 201.817 589.217 201.599 588.925 201.254 588.755 200.889 588.76 200.53 588.755 200.189 588.919 199.969 589.202 197.054 592.911 194.294 596.339 191.54 599.738 186.975 605.414 182.409 611.083 177.106 618.072 174.392 621.777 170.081 623.975 165.488 623.993ZM166.191 535.377 165.733 543.897C164.504 566.303 163.767 579.825 164.216 609.439 164.179 609.959 164.529 610.429 165.039 610.542 165.511 610.754 166.068 610.587 166.345 610.149 171.803 602.942 176.452 597.175 181.096 591.408 183.821 588.023 186.546 584.637 189.433 580.964 192.182 577.449 196.399 575.401 200.861 575.414L200.924 575.414C205.404 575.412 209.63 577.487 212.367 581.034 218.14 588.472 226.457 599.128 233.587 607.95 233.864 608.375 234.411 608.534 234.872 608.322 235.383 608.189 235.728 607.711 235.694 607.184 236.01 589.16 236.326 579.088 236.649 569.05 236.937 559.757 237.232 550.437 237.527 534.717Z" fill="#684C4B" transform="matrix(1.01122 0 0 1 717 1504)"/><path d="M147.599 508.899C159.775 538.538 193.673 552.696 223.313 540.52 252.953 528.344 267.11 494.446 254.934 464.806 254.891 464.702 254.848 464.597 254.804 464.493 242.628 434.853 208.73 420.696 179.091 432.871 149.451 445.047 135.294 478.945 147.469 508.585 147.512 508.69 147.556 508.794 147.599 508.899Z" fill="#EBDD9E" transform="matrix(1.01122 0 0 1 717 1504)"/><path d="M201.191 551.399C165.455 551.399 136.486 522.429 136.486 486.693 136.486 450.957 165.455 421.987 201.191 421.987 236.927 421.987 265.897 450.957 265.897 486.693 265.859 522.413 236.912 551.36 201.191 551.399ZM201.191 435.354C172.838 435.354 149.852 458.339 149.852 486.693 149.852 515.047 172.838 538.032 201.191 538.032 229.545 538.032 252.531 515.047 252.531 486.693 252.5 458.352 229.532 435.385 201.191 435.354Z" fill="#684C4B" transform="matrix(1.01122 0 0 1 717 1504)"/><path d="M220.508 451.116C214.938 448.812 208.869 448.91 204.183 451.411 201.906 452.613 199.988 454.4 198.628 456.587 196.34 453.495 193.285 451.054 189.763 449.507 185.177 447.513 180.091 447.569 176.095 449.676 168.073 453.89 167.496 463.225 167.188 468.24 166.956 471.886 166.703 476.03 167.504 480.357 168.187 483.691 169.267 486.931 170.721 490.008 176.334 502.578 184.313 513.951 194.223 523.506L199.309 528.381 203.902 523.035C205.308 521.378 205.87 520.739 207.204 518.99 210.019 515.464 213.04 512.107 216.251 508.938 223.591 501.387 231.185 493.576 234.303 481.994 236.158 475.082 236.164 465.332 230.629 458.673 227.916 455.373 224.443 452.78 220.508 451.116ZM221.421 478.51C219.209 486.735 213.133 492.987 206.67 499.582 203.861 502.434 201.051 505.363 198.403 508.545 192.057 501.36 186.835 493.256 182.915 484.509 181.901 482.392 181.13 480.167 180.617 477.877 180.119 475.18 180.302 472.202 180.498 469.034 180.625 466.99 180.92 462.2 182.859 461.371 183.395 461.392 183.923 461.518 184.411 461.743 187.326 463 189.566 466.253 191.674 472.279 192.823 475.619 195.953 477.871 199.485 477.899 202.816 477.895 205.8 475.836 206.986 472.722 207.575 471.14 208.07 469.524 208.469 467.883 209.171 465.227 209.642 463.591 210.449 463.155 211.595 462.544 213.519 462.649 215.367 463.415 217.304 464.243 219.013 465.527 220.346 467.159 222.138 469.316 222.58 474.176 221.421 478.51Z" fill="#684C4B" transform="matrix(1.01122 0 0 1 717 1504)"/><g><g><g><path d="M156.475 172.955 172.978 156.554 190.254 173.937 173.75 190.338Z" fill="#334A5E" transform="matrix(1.01181 0 0 1 1033 1849)"/><path d="M245.17 209.352 214.064 178.048C204.093 168.027 187.871 167.977 177.85 177.949 167.829 187.92 167.779 204.143 177.75 214.164L208.855 245.467C218.827 255.488 235.049 255.538 245.07 245.566 255.091 235.595 255.141 219.373 245.17 209.352Z" fill="#FFD15C" transform="matrix(1.01181 0 0 1 1033 1849)"/><path d="M245.07 245.566C235.049 255.538 218.827 255.488 208.855 245.467L245.17 209.352C255.141 219.373 255.091 235.595 245.07 245.566Z" fill="#F8B64C" transform="matrix(1.01181 0 0 1 1033 1849)"/><path d="M170.408 30.1129C131.961-8.58242 69.2051-8.78086 30.5594 29.6664-8.13594 68.1137-8.33438 130.87 30.1129 169.515 68.5602 208.211 131.316 208.409 169.962 169.962 208.657 131.564 208.806 68.8082 170.408 30.1129Z" fill="#40596B" transform="matrix(1.01181 0 0 1 1033 1849)"/><path d="M155.178 45.2438C125.065 14.982 75.952 14.7836 45.6902 44.8965 15.4285 75.0094 15.2797 124.123 45.343 154.384 75.4559 184.646 124.569 184.795 154.831 154.732 185.093 124.668 185.241 75.5551 155.178 45.2438Z" fill="#FFFFFF" transform="matrix(1.01181 0 0 1 1033 1849)"/><path d="M139.948 60.3746C118.219 38.4969 82.6988 38.3977 60.8211 60.1266 38.9434 81.8555 38.8441 117.376 60.5731 139.254 82.302 161.131 117.822 161.23 139.7 139.502 161.578 117.773 161.677 82.302 139.948 60.3746Z" fill="#84DBFF" transform="matrix(1.01181 0 0 1 1033 1849)"/><path d="M127.794 72.4297C112.663 57.2492 88.007 57.15 72.8266 72.2809 57.6461 87.4117 57.5469 112.068 72.6777 127.248 87.8086 142.429 112.464 142.528 127.645 127.397 142.825 112.316 142.925 87.6598 127.794 72.4297Z" fill="#54C0EB" transform="matrix(1.01181 0 0 1 1033 1849)"/><path d="M77.1922 88.6024C71.5863 94.1586 62.5078 94.109 56.9516 88.5527 51.3953 82.9469 51.4449 73.8684 57.0012 68.3121 62.607 62.7559 71.6856 62.8055 77.2418 68.3617 82.7981 73.9676 82.7981 83.0461 77.1922 88.6024Z" fill="#FFFFFF" transform="matrix(1.01181 0 0 1 1033 1849)"/></g></g></g></g></svg>