<svg width="1203" height="1332" xmlns="http://www.w3.org/2000/svg" xmlns:xlink="http://www.w3.org/1999/xlink" xml:space="preserve" overflow="hidden"><defs><filter id="fx0" x="-10%" y="-10%" width="120%" height="120%" filterUnits="userSpaceOnUse" primitiveUnits="userSpaceOnUse"><feComponentTransfer color-interpolation-filters="sRGB"><feFuncR type="discrete" tableValues="0 0"/><feFuncG type="discrete" tableValues="0 0"/><feFuncB type="discrete" tableValues="0 0"/><feFuncA type="linear" slope="0.4" intercept="0"/></feComponentTransfer><feGaussianBlur stdDeviation="6.11111 6.11111"/></filter><clipPath id="clip1"><rect x="886" y="605" width="1203" height="1332"/></clipPath><clipPath id="clip2"><path d="M898.5 617.5 898.5 1904.5 2056.5 1904.5 2056.5 617.5ZM886 605 2089 605 2089 1937 886 1937Z" fill-rule="evenodd" clip-rule="evenodd"/></clipPath></defs><g clip-path="url(#clip1)" transform="translate(-886 -605)"><g clip-path="url(#clip2)"><g filter="url(#fx0)" transform="translate(885 604)"><g><rect x="23.2228" y="23.2226" width="1158" height="1287" stroke="#000000" stroke-width="7" stroke-miterlimit="8" fill="#FFFFFF"/></g></g></g><rect x="898.5" y="617.5" width="1158" height="1287" stroke="#000000" stroke-width="6.875" stroke-miterlimit="8" fill="#FFFFFF"/><g><g><g><path d="M1893.37 1533.04C1867.57 1573.92 1813.17 1597.8 1809.33 1599.07 1809.28 1599.09 1809.22 1599.11 1809.17 1599.13L1808.68 1599.33C1808.09 1599.56 1807.44 1599.56 1806.85 1599.33L1806.28 1599.1C1802.32 1597.33 1708.77 1557.09 1708.77 1489.64L1708.77 1369.98C1708.77 1366.16 1711.15 1362.74 1714.73 1361.41L1786.6 1334.79C1800.26 1329.72 1815.27 1329.72 1828.93 1334.79L1900.8 1361.41C1904.38 1362.74 1906.76 1366.16 1906.76 1369.98L1906.76 1489.64C1906.76 1491.74 1906.5 1495.79 1906.32 1497.83" fill="#FFFFFF"/><path d="M1807.77 1602.15C1807.12 1602.15 1806.48 1602.03 1805.87 1601.79L1804.92 1601.4C1796.48 1597.66 1774.55 1587.13 1753.15 1570.09 1739.46 1559.19 1728.56 1547.62 1720.78 1535.71 1711.05 1520.84 1706.12 1505.34 1706.12 1489.64L1706.12 1369.98C1706.12 1365.08 1709.21 1360.63 1713.81 1358.93L1785.68 1332.3C1799.93 1327.02 1815.6 1327.02 1829.85 1332.3L1901.72 1358.93C1906.32 1360.63 1909.41 1365.08 1909.41 1369.98L1909.41 1489.64C1909.41 1491.86 1909.14 1498.45 1908.96 1500.48L1903.68 1500.03C1903.85 1498.13 1904.11 1491.72 1904.11 1489.64L1904.11 1369.98C1904.11 1367.28 1902.41 1364.84 1899.87 1363.9L1828.01 1337.27C1814.95 1332.43 1800.58 1332.43 1787.52 1337.27L1715.66 1363.9C1713.12 1364.84 1711.42 1367.28 1711.42 1369.98L1711.42 1489.64C1711.42 1504.29 1716.06 1518.81 1725.21 1532.81 1732.69 1544.25 1743.2 1555.4 1756.45 1565.95 1777.96 1583.07 1800.63 1593.7 1807.07 1596.55L1807.31 1596.66 1807.76 1596.84 1808.19 1596.67C1808.28 1596.63 1808.38 1596.6 1808.49 1596.56 1809.04 1596.38 1864.12 1576.11 1890.32 1534.59L1894.8 1537.42C1888.76 1546.99 1880.74 1556.24 1870.97 1564.91 1863.09 1571.9 1854.05 1578.54 1844.1 1584.65 1827.51 1594.84 1812.89 1600.69 1810.17 1601.59L1810.13 1601.6 1809.66 1601.79C1809.06 1602.03 1808.41 1602.15 1807.77 1602.15Z" fill="#12126D"/><path d="M1891.99 1376.57C1890.32 1376.57 1888.95 1377.94 1888.95 1379.61L1888.95 1391.78C1888.95 1393.45 1890.32 1394.82 1891.99 1394.82 1893.66 1394.82 1895.03 1393.45 1895.03 1391.78L1895.03 1379.61C1895.03 1377.94 1893.66 1376.57 1891.99 1376.57M1858.85 1362.08C1857.58 1362.08 1856.39 1362.89 1855.97 1364.16 1855.44 1365.76 1856.3 1367.48 1857.89 1368.01L1869.43 1371.86C1869.75 1371.96 1870.07 1372.01 1870.39 1372.01 1871.66 1372.01 1872.85 1371.21 1873.28 1369.93 1873.81 1368.34 1872.95 1366.62 1871.35 1366.09L1859.81 1362.24C1859.5 1362.14 1859.18 1362.08 1858.85 1362.08M1823.23 1349.92C1821.95 1349.92 1820.77 1350.73 1820.34 1352 1819.81 1353.59 1820.67 1355.32 1822.27 1355.85L1833.8 1359.69C1834.12 1359.8 1834.45 1359.85 1834.77 1359.85 1836.04 1359.85 1837.23 1359.05 1837.65 1357.77 1838.18 1356.18 1837.32 1354.46 1835.73 1353.92L1824.19 1350.08C1823.88 1349.97 1823.55 1349.92 1823.23 1349.92M1891.99 1409.41C1890.32 1409.41 1888.95 1410.78 1888.95 1412.45L1888.95 1419.14C1888.95 1420.82 1890.32 1422.18 1891.99 1422.18 1893.66 1422.18 1895.03 1420.82 1895.03 1419.14L1895.03 1412.45C1895.03 1410.78 1893.66 1409.41 1891.99 1409.41M1891.99 1431.31C1890.32 1431.31 1888.95 1432.68 1888.95 1434.35L1888.95 1446.51C1888.95 1448.18 1890.32 1449.55 1891.99 1449.55 1893.66 1449.55 1895.03 1448.18 1895.03 1446.51L1895.03 1434.35C1895.03 1432.68 1893.66 1431.31 1891.99 1431.31M1891.99 1464.77C1890.32 1464.77 1888.95 1466.14 1888.95 1467.81L1888.95 1473.9C1888.95 1475.57 1890.32 1476.94 1891.99 1476.94 1893.66 1476.94 1895.03 1475.57 1895.03 1473.9L1895.03 1467.81C1895.03 1466.14 1893.66 1464.77 1891.99 1464.77M1892.52 1486.08C1890.96 1486.08 1889.64 1487.27 1889.5 1488.86L1888.42 1500.97C1888.27 1502.64 1889.51 1504.12 1891.18 1504.27 1891.27 1504.28 1891.37 1504.28 1891.46 1504.28 1893.01 1504.28 1894.34 1503.09 1894.48 1501.51L1895.55 1489.39C1895.7 1487.72 1894.46 1486.24 1892.79 1486.09 1892.7 1486.09 1892.61 1486.08 1892.52 1486.08M1865.27 1538.96C1864.59 1538.96 1863.93 1539.19 1863.4 1539.61L1853.82 1547.11C1852.5 1548.15 1852.27 1550.06 1853.31 1551.38 1853.88 1552.12 1854.77 1552.55 1855.7 1552.55 1856.38 1552.55 1857.04 1552.32 1857.58 1551.9L1867.15 1544.4C1868.47 1543.36 1868.7 1541.45 1867.67 1540.13 1867.09 1539.39 1866.21 1538.96 1865.27 1538.96M1843.38 1557.89C1842.7 1557.89 1842.04 1558.12 1841.5 1558.54L1831.93 1566.04C1830.61 1567.08 1830.38 1568.99 1831.41 1570.31 1831.99 1571.05 1832.87 1571.48 1833.81 1571.48 1834.46 1571.48 1835.12 1571.27 1835.68 1570.83L1845.25 1563.33C1846.58 1562.29 1846.81 1560.38 1845.77 1559.06 1845.2 1558.32 1844.31 1557.89 1843.38 1557.89M1820.88 1571.48C1820.22 1571.48 1819.56 1571.69 1819 1572.13L1809.43 1579.63C1808.11 1580.67 1807.87 1582.58 1808.91 1583.9 1809.49 1584.63 1810.37 1585.06 1811.31 1585.06 1811.96 1585.06 1812.62 1584.85 1813.18 1584.42L1822.75 1576.91C1824.08 1575.88 1824.31 1573.97 1823.27 1572.64 1822.69 1571.91 1821.81 1571.48 1820.88 1571.48" fill="#12126D"/><path d="M1806.15 1561.51C1801.36 1559.39 1784.47 1551.47 1768.46 1538.72 1758.62 1530.89 1750.82 1522.62 1745.28 1514.15 1738.54 1503.84 1735.12 1493.15 1735.12 1482.39L1735.12 1392.74C1735.12 1391.16 1736.12 1389.72 1737.61 1389.17L1791.44 1369.22C1796.18 1367.47 1801.19 1366.57 1806.24 1366.57 1811.31 1366.57 1816.29 1367.46 1821.05 1369.22L1874.88 1389.17C1876.37 1389.72 1877.36 1391.16 1877.36 1392.74L1877.36 1482.39C1877.36 1493.27 1873.88 1504.08 1866.99 1514.53 1861.35 1523.1 1853.42 1531.46 1843.44 1539.35 1826.22 1552.98 1808.4 1560.84 1806.47 1561.48 1806.39 1561.5 1806.32 1561.53 1806.25 1561.55L1806.15 1561.51Z" fill="#B4CEFC"/><path d="M1806.25 1369.61C1810.95 1369.61 1815.58 1370.44 1819.99 1372.08L1873.83 1392.03C1874.12 1392.14 1874.32 1392.42 1874.32 1392.74L1874.32 1482.39C1874.32 1492.6 1871.04 1502.79 1864.58 1512.67 1859.17 1520.94 1851.54 1529.02 1841.9 1536.69 1832.94 1543.83 1823.92 1549.24 1817.93 1552.52 1812.29 1555.61 1808.09 1557.51 1806.33 1558.26 1800.54 1555.63 1785.08 1548.06 1770.36 1536.35 1760.77 1528.71 1753.19 1520.69 1747.83 1512.48 1741.42 1502.68 1738.16 1492.55 1738.16 1482.39L1738.16 1392.74C1738.16 1392.42 1738.37 1392.14 1738.66 1392.03L1792.5 1372.08C1796.9 1370.44 1801.55 1369.61 1806.25 1369.61L1806.25 1369.61M1806.24 1363.53C1800.83 1363.53 1795.46 1364.49 1790.39 1366.37L1736.55 1386.32C1733.86 1387.32 1732.08 1389.88 1732.08 1392.74L1732.08 1482.39C1732.08 1532.91 1802.17 1563.06 1805.13 1564.38L1805.56 1564.56C1806 1564.73 1806.49 1564.73 1806.93 1564.56L1807.29 1564.41C1807.34 1564.39 1807.38 1564.38 1807.42 1564.37 1811.2 1563.11 1880.41 1532.6 1880.41 1482.39L1880.41 1392.74C1880.41 1389.88 1878.62 1387.32 1875.94 1386.32L1822.1 1366.37C1817.03 1364.49 1811.66 1363.53 1806.24 1363.53" fill="#12126D"/><path d="M1869.67 1600.96C1866.32 1600.96 1863.59 1598.23 1863.59 1594.88L1863.59 1543.18C1863.59 1539.83 1866.32 1537.1 1869.67 1537.1L1948.73 1537.1C1952.09 1537.1 1954.81 1539.83 1954.81 1543.18L1954.81 1594.88C1954.81 1598.23 1952.09 1600.96 1948.73 1600.96L1869.67 1600.96Z" fill="#E0D224"/><path d="M1948.73 1540.14C1950.41 1540.14 1951.77 1541.51 1951.77 1543.18L1951.77 1594.88C1951.77 1596.55 1950.41 1597.92 1948.73 1597.92L1869.67 1597.92C1868 1597.92 1866.63 1596.55 1866.63 1594.88L1866.63 1543.18C1866.63 1541.51 1868 1540.14 1869.67 1540.14L1948.73 1540.14M1948.73 1534.06 1869.67 1534.06C1864.64 1534.06 1860.55 1538.15 1860.55 1543.18L1860.55 1594.88C1860.55 1599.92 1864.63 1604 1869.67 1604L1948.73 1604C1953.77 1604 1957.86 1599.92 1957.86 1594.88L1957.86 1543.18C1957.86 1538.15 1953.77 1534.06 1948.73 1534.06" fill="#12126D"/><path d="M1935.62 1539.7 1930.23 1539.7 1930.23 1527.06C1930.23 1514.76 1920.22 1504.75 1907.92 1504.75 1895.63 1504.75 1885.62 1514.76 1885.62 1527.06L1885.62 1539.7 1880.23 1539.7 1880.23 1527.06C1880.23 1511.79 1892.65 1499.36 1907.92 1499.36 1923.19 1499.36 1935.62 1511.79 1935.62 1527.06L1935.62 1539.7Z" fill="#12126D"/><path d="M1909.2 1556.4C1907.53 1556.4 1906.16 1557.77 1906.16 1559.44L1906.16 1571.6C1906.16 1573.27 1907.53 1574.64 1909.2 1574.64 1910.88 1574.64 1912.24 1573.27 1912.24 1571.6L1912.24 1559.44C1912.24 1557.77 1910.88 1556.4 1909.2 1556.4" fill="#FFFFFF"/><path d="M1794.95 1478.84C1794.82 1478.84 1794.56 1478.81 1794.35 1478.59L1772.34 1456.59C1772.02 1456.26 1772.02 1455.71 1772.34 1455.38 1772.55 1455.17 1772.81 1455.14 1772.94 1455.14 1773.07 1455.14 1773.33 1455.17 1773.54 1455.38L1795.55 1477.39C1795.76 1477.6 1795.79 1477.86 1795.79 1477.99 1795.79 1478.13 1795.76 1478.38 1795.55 1478.59 1795.34 1478.81 1795.08 1478.84 1794.95 1478.84" fill="#D9E5F9"/><path d="M1795.73 1479.36C1795.6 1479.36 1795.34 1479.32 1795.13 1479.11 1794.92 1478.9 1794.88 1478.64 1794.88 1478.51 1794.88 1478.38 1794.92 1478.12 1795.13 1477.91L1844.65 1428.39C1844.86 1428.18 1845.11 1428.15 1845.25 1428.15 1845.38 1428.15 1845.64 1428.18 1845.85 1428.39 1846.17 1428.72 1846.17 1429.27 1845.85 1429.59L1796.33 1479.11C1796.12 1479.32 1795.86 1479.36 1795.73 1479.36" fill="#D9E5F9"/><path d="M1848 1426.24C1847.24 1425.48 1846.24 1425.11 1845.25 1425.11 1844.25 1425.11 1843.25 1425.48 1842.5 1426.24L1795.6 1473.14 1775.69 1453.23C1774.94 1452.48 1773.94 1452.1 1772.94 1452.1 1771.94 1452.1 1770.95 1452.48 1770.19 1453.23 1768.68 1454.75 1768.68 1457.22 1770.19 1458.74L1792.2 1480.74C1792.49 1481.04 1792.83 1481.28 1793.2 1481.46 1793.91 1482.07 1794.8 1482.4 1795.73 1482.4 1796.73 1482.4 1797.72 1482.02 1798.48 1481.26L1848 1431.74C1849.51 1430.23 1849.51 1427.75 1848 1426.24ZM1720.95 1376.57C1719.28 1376.57 1717.91 1377.94 1717.91 1379.61L1717.91 1391.78C1717.91 1393.45 1719.28 1394.82 1720.95 1394.82 1722.63 1394.82 1723.99 1393.45 1723.99 1391.78L1723.99 1379.61C1723.99 1377.94 1722.63 1376.57 1720.95 1376.57M1754.09 1362.08C1753.77 1362.08 1753.45 1362.13 1753.13 1362.24L1741.59 1366.09C1740 1366.62 1739.14 1368.34 1739.67 1369.93 1740.09 1371.21 1741.28 1372.01 1742.55 1372.01 1742.88 1372.01 1743.2 1371.96 1743.51 1371.86L1755.05 1368.01C1756.64 1367.48 1757.51 1365.76 1756.98 1364.16 1756.55 1362.89 1755.36 1362.08 1754.09 1362.08M1789.72 1349.92C1789.4 1349.92 1789.07 1349.97 1788.75 1350.08L1777.21 1353.92C1775.62 1354.46 1774.76 1356.18 1775.29 1357.77 1775.72 1359.05 1776.9 1359.85 1778.18 1359.85 1778.49 1359.85 1778.82 1359.8 1779.14 1359.69L1790.68 1355.85C1792.27 1355.32 1793.13 1353.59 1792.6 1352 1792.18 1350.73 1790.99 1349.92 1789.72 1349.92M1720.95 1409.41C1719.28 1409.41 1717.91 1410.78 1717.91 1412.45L1717.91 1419.14C1717.91 1420.82 1719.28 1422.18 1720.95 1422.18 1722.63 1422.18 1723.99 1420.82 1723.99 1419.14L1723.99 1412.45C1723.99 1410.78 1722.63 1409.41 1720.95 1409.41M1720.95 1431.31C1719.28 1431.31 1717.91 1432.68 1717.91 1434.35L1717.91 1446.51C1717.91 1448.18 1719.28 1449.55 1720.95 1449.55 1722.63 1449.55 1723.99 1448.18 1723.99 1446.51L1723.99 1434.35C1723.99 1432.68 1722.63 1431.31 1720.95 1431.31M1720.95 1464.77C1719.28 1464.77 1717.91 1466.14 1717.91 1467.81L1717.91 1473.9C1717.91 1475.57 1719.28 1476.94 1720.95 1476.94 1722.63 1476.94 1723.99 1475.57 1723.99 1473.9L1723.99 1467.81C1723.99 1466.14 1722.63 1464.77 1720.95 1464.77M1720.42 1486.08C1720.33 1486.08 1720.24 1486.09 1720.15 1486.09 1718.48 1486.24 1717.24 1487.72 1717.39 1489.39L1718.46 1501.51C1718.6 1503.09 1719.93 1504.28 1721.49 1504.28 1721.58 1504.28 1721.67 1504.28 1721.76 1504.27 1723.43 1504.12 1724.67 1502.64 1724.52 1500.97L1723.45 1488.86C1723.31 1487.27 1721.98 1486.08 1720.42 1486.08M1728.6 1514.62C1728 1514.62 1727.39 1514.8 1726.86 1515.17 1725.48 1516.13 1725.15 1518.02 1726.11 1519.4L1733.07 1529.37C1733.64 1530.19 1734.57 1530.67 1735.57 1530.67 1736.17 1530.67 1736.78 1530.49 1737.31 1530.12 1738.68 1529.16 1739.02 1527.27 1738.06 1525.89L1731.09 1515.92C1730.52 1515.1 1729.59 1514.62 1728.6 1514.62M1747.67 1538.96C1746.77 1538.96 1745.88 1539.36 1745.28 1540.13 1744.24 1541.45 1744.47 1543.36 1745.79 1544.4L1755.37 1551.9C1755.9 1552.32 1756.56 1552.55 1757.24 1552.55 1758.14 1552.55 1759.04 1552.15 1759.64 1551.38 1760.67 1550.06 1760.44 1548.15 1759.12 1547.11L1749.55 1539.61C1749.01 1539.19 1748.35 1538.96 1747.67 1538.96M1769.57 1557.89C1768.66 1557.89 1767.77 1558.29 1767.17 1559.06 1766.13 1560.38 1766.37 1562.29 1767.69 1563.33L1777.26 1570.83C1777.79 1571.25 1778.45 1571.48 1779.13 1571.48 1780.07 1571.48 1780.95 1571.05 1781.53 1570.31 1782.57 1568.99 1782.33 1567.08 1781.01 1566.04L1771.44 1558.54C1770.91 1558.12 1770.24 1557.89 1769.57 1557.89M1792.07 1571.48C1791.16 1571.48 1790.27 1571.88 1789.67 1572.64 1788.64 1573.97 1788.87 1575.88 1790.19 1576.91L1799.76 1584.42C1800.3 1584.84 1800.96 1585.06 1801.64 1585.06 1802.54 1585.06 1803.43 1584.66 1804.03 1583.9 1805.07 1582.58 1804.84 1580.67 1803.51 1579.63L1793.94 1572.13C1793.41 1571.71 1792.75 1571.48 1792.07 1571.48" fill="#12126D"/></g></g></g><g><g><g><path d="M1017.89 1135.23 1187.23 1135.23 1187.23 1335.08 1017.89 1335.08 1017.89 1135.23Z" fill="#D8E3F0"/><path d="M1040.08 1157.46 1165 1157.46 1165 1312.89 1040.08 1312.89Z" fill="#EDF4FF"/><path d="M1186.81 1277.36 1166.27 1289.16 1145.78 1277.36 1107.9 1342.93 1126.04 1340.67 1133.09 1357.49 1166.27 1300.06 1199.45 1357.49 1206.55 1340.67 1224.69 1342.93 1186.81 1277.36Z" fill="#F65855"/><path d="M1125.1 1278.82C1125.1 1301.56 1143.53 1319.99 1166.27 1319.99 1189.01 1319.99 1207.44 1301.56 1207.44 1278.82 1207.44 1256.08 1189.01 1237.64 1166.27 1237.64 1143.53 1237.64 1125.1 1256.08 1125.1 1278.82Z" fill="#FFC670"/><path d="M1170.13 1237.83C1187.33 1245.47 1195.08 1265.6 1187.45 1282.8 1179.81 1300 1159.68 1307.76 1142.48 1300.12 1134.71 1296.68 1128.51 1290.45 1125.1 1282.67 1127.22 1305.31 1147.3 1321.94 1169.94 1319.82 1192.58 1317.69 1209.21 1297.62 1207.08 1274.98 1205.24 1255.28 1189.64 1239.68 1169.94 1237.83Z" fill="#FFB75E"/><path d="M1166.27 1257.43 1174.54 1268.15 1187.28 1272.71 1179.67 1283.89 1179.29 1297.43 1166.27 1293.62 1153.3 1297.43 1152.88 1283.89 1145.26 1272.71 1158 1268.15 1166.27 1257.43Z" fill="#FFDEAD"/><path d="M1228.73 1340.57 1206.13 1301.47C1218.01 1280.67 1211.87 1254.22 1192.03 1240.79L1192.03 1141.53C1192.03 1135.46 1187.1 1130.53 1181.03 1130.53L1024.14 1130.53C1018.1 1130.53 1013.19 1135.43 1013.19 1141.48 1013.19 1141.5 1013.19 1141.51 1013.19 1141.53L1013.19 1328.83C1013.19 1334.87 1018.1 1339.78 1024.14 1339.78L1104.28 1339.78 1103.81 1340.57C1102.86 1342.1 1102.86 1344.03 1103.81 1345.56 1104.83 1347.12 1106.67 1347.93 1108.51 1347.62L1123.13 1345.75 1128.81 1359.33C1129.51 1360.97 1131.07 1362.08 1132.85 1362.2L1133.14 1362.2C1134.82 1362.2 1136.38 1361.31 1137.23 1359.85L1158 1323.94C1160.74 1324.44 1163.53 1324.71 1166.32 1324.74 1169.13 1324.71 1171.92 1324.44 1174.68 1323.94L1195.6 1359.85C1196.44 1361.31 1198 1362.2 1199.69 1362.2L1199.97 1362.2C1201.75 1362.08 1203.32 1360.97 1204.01 1359.33L1209.7 1345.75 1224.32 1347.62C1226.89 1347.99 1229.26 1346.2 1229.63 1343.63 1229.78 1342.57 1229.56 1341.49 1229.02 1340.57ZM1024.14 1330.38C1023.29 1330.38 1022.59 1329.68 1022.59 1328.83L1022.59 1141.53C1022.59 1140.67 1023.28 1139.96 1024.14 1139.93L1180.94 1139.93C1181.82 1139.93 1182.53 1140.65 1182.53 1141.53L1182.53 1236C1178.42 1234.42 1174.1 1233.45 1169.7 1233.13L1169.7 1157.46C1169.7 1154.87 1167.6 1152.76 1165 1152.76L1040.08 1152.76C1037.48 1152.76 1035.38 1154.87 1035.38 1157.46L1035.38 1312.85C1035.38 1315.44 1037.48 1317.55 1040.08 1317.55L1117.11 1317.55 1109.68 1330.38ZM1120.4 1278.82C1120.41 1286.76 1122.48 1294.57 1126.42 1301.47L1122.51 1308.15 1044.78 1308.15 1044.78 1162.16 1160.3 1162.16 1160.3 1233.37C1137.51 1236.4 1120.46 1255.82 1120.4 1278.82ZM1133.75 1346.97 1130.36 1338.84C1129.56 1336.99 1127.67 1335.85 1125.66 1336.02L1116.92 1337.1 1132.71 1309.74C1137.13 1314.65 1142.54 1318.55 1148.6 1321.16ZM1129.8 1278.82C1129.83 1258.67 1146.18 1242.37 1166.32 1242.39 1186.46 1242.42 1202.77 1258.77 1202.74 1278.91 1202.72 1299.04 1186.4 1315.34 1166.27 1315.34 1146.12 1315.31 1129.8 1298.97 1129.8 1278.82ZM1207.11 1336.02C1205.02 1335.74 1203.01 1336.9 1202.18 1338.84L1198.8 1346.97 1183.9 1321.16C1190.14 1318.61 1195.74 1314.71 1200.3 1309.74L1216.09 1337.1Z" fill="#3D3D63"/><path d="M1188.88 1268.29 1177.46 1264.2 1169.99 1254.8C1168.34 1252.79 1165.38 1252.49 1163.37 1254.13 1163.13 1254.33 1162.9 1254.55 1162.7 1254.8L1155.23 1264.2 1143.9 1268.29C1142.54 1268.78 1141.48 1269.87 1141.03 1271.25 1140.58 1272.63 1140.79 1274.14 1141.6 1275.34L1148.46 1285.4 1148.6 1297.57C1148.64 1299.02 1149.35 1300.38 1150.53 1301.24 1151.71 1302.09 1153.22 1302.35 1154.62 1301.94L1166.27 1298.51 1177.97 1301.94C1178.41 1302.01 1178.86 1302.01 1179.29 1301.94 1180.27 1301.93 1181.22 1301.62 1182.02 1301.05 1183.21 1300.2 1183.94 1298.84 1183.99 1297.38L1184.32 1285.21 1191.18 1275.15C1192.01 1273.96 1192.23 1272.45 1191.79 1271.06 1191.29 1269.75 1190.22 1268.73 1188.88 1268.29ZM1175.81 1281.26C1175.3 1281.99 1175.01 1282.86 1174.97 1283.75L1174.97 1291.22 1167.4 1289.11C1166.54 1288.86 1165.63 1288.86 1164.77 1289.11L1158 1291.22 1157.76 1283.75C1157.73 1282.86 1157.43 1281.99 1156.92 1281.26L1152.74 1275.06 1159.74 1272.57C1160.58 1272.25 1161.33 1271.71 1161.9 1271.02L1166.6 1265.09 1171.3 1271.02C1171.87 1271.71 1172.62 1272.25 1173.46 1272.57L1180.47 1275.06ZM1123.74 1176.31 1081.44 1176.31C1078.84 1176.31 1076.74 1178.41 1076.74 1181.01 1076.74 1183.61 1078.84 1185.71 1081.44 1185.71L1123.74 1185.71C1126.33 1185.71 1128.44 1183.61 1128.44 1181.01 1128.44 1178.41 1126.33 1176.31 1123.74 1176.31ZM1063.01 1272.05 1087.03 1272.05C1089.63 1272.05 1091.73 1269.94 1091.73 1267.35 1091.73 1264.75 1089.62 1262.65 1087.03 1262.65L1063.01 1262.65C1060.42 1262.65 1058.31 1264.75 1058.31 1267.35 1058.31 1269.94 1060.42 1272.05 1063.01 1272.05ZM1106.3 1283.42 1063.01 1283.42C1060.42 1283.42 1058.31 1285.53 1058.31 1288.12 1058.31 1290.72 1060.42 1292.82 1063.01 1292.82L1106.3 1292.82C1108.9 1292.82 1111 1290.72 1111 1288.12 1111 1285.53 1108.89 1283.42 1106.3 1283.42Z" fill="#3D3D63"/></g></g></g><g><g><g><path d="M1108.79 1704.57 1108.79 1722.96 1122.57 1722.96C1127.65 1722.89 1131.82 1726.95 1131.89 1732.02 1131.96 1737.1 1127.9 1741.27 1122.82 1741.34 1122.74 1741.34 1122.66 1741.34 1122.57 1741.34L1108.79 1741.34 1108.79 1745.94C1108.79 1751.01 1104.67 1755.13 1099.59 1755.13L1090.4 1755.13C1085.33 1755.13 1081.21 1751.01 1081.21 1745.93L1081.21 1640.23 1108.79 1640.23 1108.79 1686.19 1122.57 1686.19C1127.65 1686.12 1131.82 1690.18 1131.89 1695.26 1131.96 1700.33 1127.9 1704.51 1122.83 1704.57 1122.74 1704.58 1122.66 1704.58 1122.57 1704.57L1108.79 1704.57Z" fill="#D6A154"/><path d="M1168.53 1564.73 1168.53 1633.01C1168.53 1644.62 1159.12 1654.02 1147.52 1654.02L1108.79 1654.02C1108.79 1669.25 1096.44 1681.6 1081.21 1681.6L1081.21 1654.02 1042.48 1654.02C1030.88 1654.02 1021.47 1644.62 1021.47 1633.01L1021.47 1564.73C1021.47 1553.13 1030.88 1543.73 1042.48 1543.73L1147.52 1543.73C1159.13 1543.73 1168.53 1553.13 1168.53 1564.73Z" fill="#FED766"/><path d="M1084.66 1617.03 1084.66 1617.49C1084.66 1619.39 1083.12 1620.93 1081.21 1620.93 1079.31 1620.93 1077.77 1619.39 1077.77 1617.49L1077.77 1617.03C1077.77 1615.12 1079.31 1613.58 1081.21 1613.58 1083.12 1613.58 1084.66 1615.12 1084.66 1617.03ZM1095 1613.58C1093.1 1613.58 1091.55 1615.12 1091.55 1617.03L1091.55 1617.49C1091.55 1619.39 1093.1 1620.93 1095 1620.93 1096.9 1620.93 1098.45 1619.39 1098.45 1617.49L1098.45 1617.03C1098.45 1615.12 1096.9 1613.58 1095 1613.58ZM1108.79 1613.58C1106.88 1613.58 1105.34 1615.12 1105.34 1617.03L1105.34 1617.49C1105.38 1619.39 1106.96 1620.9 1108.86 1620.86 1110.71 1620.82 1112.19 1619.33 1112.23 1617.49L1112.23 1617.03C1112.23 1615.12 1110.69 1613.58 1108.79 1613.58ZM1067.42 1583.94 1122.57 1583.94C1124.48 1583.94 1126.02 1582.39 1126.02 1580.49 1126.02 1578.59 1124.48 1577.05 1122.57 1577.04L1067.42 1577.04C1065.52 1577.05 1063.98 1578.59 1063.98 1580.49 1063.98 1582.4 1065.52 1583.94 1067.42 1583.94ZM1122.57 1595.43 1067.42 1595.43C1065.52 1595.43 1063.98 1596.97 1063.98 1598.88 1063.98 1600.78 1065.52 1602.32 1067.42 1602.32L1122.57 1602.32C1124.47 1602.32 1126.02 1600.78 1126.02 1598.87 1126.02 1596.97 1124.47 1595.43 1122.57 1595.43Z" fill="#AD8653"/><path d="M1147.52 1540.28 1042.48 1540.28C1028.99 1540.28 1018.02 1551.25 1018.02 1564.73L1018.02 1633.01C1018.02 1646.5 1028.99 1657.47 1042.48 1657.47L1077.77 1657.47 1077.77 1745.94C1077.77 1752.9 1083.44 1758.57 1090.4 1758.57L1099.6 1758.57C1106.56 1758.57 1112.23 1752.9 1112.23 1745.94L1112.23 1744.79 1122.57 1744.79C1129.54 1744.79 1135.21 1739.12 1135.21 1732.15 1135.21 1725.18 1129.54 1719.51 1122.57 1719.51L1112.23 1719.51 1112.23 1708.02 1122.57 1708.02C1129.54 1708.02 1135.21 1702.35 1135.21 1695.38 1135.21 1688.41 1129.54 1682.75 1122.57 1682.75L1112.23 1682.75 1112.23 1657.47 1147.52 1657.47C1161.01 1657.47 1171.98 1646.5 1171.98 1633.01L1171.98 1564.73C1171.98 1551.25 1161.01 1540.28 1147.52 1540.28ZM1122.57 1689.64C1125.75 1689.64 1128.32 1692.21 1128.32 1695.38 1128.31 1698.56 1125.74 1701.13 1122.57 1701.13L1108.79 1701.13C1106.88 1701.13 1105.34 1702.67 1105.34 1704.57 1105.34 1704.57 1105.34 1704.57 1105.34 1704.57L1105.34 1722.96C1105.34 1724.86 1106.88 1726.4 1108.78 1726.4 1108.79 1726.4 1108.79 1726.4 1108.79 1726.4L1122.57 1726.4C1125.74 1726.41 1128.31 1728.98 1128.32 1732.15 1128.32 1735.32 1125.75 1737.89 1122.57 1737.89L1108.79 1737.89C1106.88 1737.89 1105.34 1739.44 1105.34 1741.34 1105.34 1741.34 1105.34 1741.34 1105.34 1741.34L1105.34 1745.94C1105.34 1749.11 1102.77 1751.68 1099.59 1751.68L1090.4 1751.68C1087.23 1751.68 1084.66 1749.11 1084.66 1745.94L1084.66 1684.85C1092.99 1683.93 1100.33 1679.69 1105.34 1673.5L1105.34 1686.19C1105.34 1688.09 1106.88 1689.64 1108.78 1689.64 1108.78 1689.64 1108.79 1689.64 1108.79 1689.64L1122.57 1689.64ZM1165.08 1633.01C1165.08 1642.7 1157.21 1650.58 1147.52 1650.58L1108.79 1650.58C1106.88 1650.58 1105.34 1652.12 1105.34 1654.02 1105.34 1666.15 1096.34 1676.23 1084.66 1677.9L1084.66 1654.02C1084.66 1652.12 1083.12 1650.58 1081.22 1650.58 1081.22 1650.58 1081.21 1650.58 1081.21 1650.58L1042.48 1650.58C1032.79 1650.58 1024.92 1642.7 1024.92 1633.01L1024.92 1564.73C1024.92 1555.05 1032.79 1547.17 1042.48 1547.17L1147.52 1547.17C1157.21 1547.17 1165.08 1555.05 1165.08 1564.73L1165.08 1633.01Z" fill="#4C4C4C"/></g></g></g><text font-family="Arial,Arial_MSFontService,sans-serif" font-weight="700" font-size="55" transform="matrix(1 0 0 1 974.093 1827)">Secret key</text><text font-family="Arial,Arial_MSFontService,sans-serif" font-weight="700" font-size="55" transform="matrix(1 0 0 1 974.093 1432)">Credential</text><g><g><g><path d="M1173.75 806.5 1181.15 799.097C1186.44 793.851 1193.55 790.859 1201 790.75L1202.73 771.115 1208.24 706.75C1208.7 702.862 1205.91 699.343 1202.03 698.889 1201.98 698.884 1201.94 698.879 1201.89 698.875L1057.73 686.275C1053.88 685.941 1050.48 688.778 1050.11 692.628L1048.38 712.683 1048.38 808.232 1172.07 808.232Z" fill="#FFC670"/><path d="M1176.64 707.432 1031.9 707.432C1025.15 707.461 1019.69 712.921 1019.67 719.665L1019.67 916.015C1019.69 922.759 1025.15 928.219 1031.9 928.247L1113.85 928.247C1116.42 928.289 1118.64 926.468 1119.1 923.942 1119.91 919.237 1122.15 914.893 1125.51 911.5L1129.81 907.142C1131.85 905.095 1131.85 901.788 1129.81 899.74L1125.51 895.75C1116.27 886.533 1116.26 871.574 1125.47 862.339 1125.48 862.328 1125.49 862.318 1125.51 862.307L1132.75 854.642C1138.83 848.597 1146.97 845.056 1155.54 844.72 1156.83 844.675 1158.07 844.151 1159 843.25L1165.83 836.425C1166.74 835.472 1167.28 834.224 1167.35 832.907 1167.64 824.327 1171.19 816.179 1177.27 810.122L1184.67 802.72C1185.05 802.327 1185.48 801.975 1185.93 801.67L1186.72 801.04C1187.95 800.039 1188.67 798.534 1188.66 796.945L1188.66 719.665C1188.66 712.99 1183.31 707.547 1176.64 707.432Z" fill="#FFF6E6"/><path d="M1119.84 920.74C1120.96 917.25 1122.9 914.081 1125.51 911.5L1129.81 907.142C1131.85 905.095 1131.85 901.788 1129.81 899.74L1125.51 895.75C1119.74 889.959 1117.38 881.6 1119.26 873.648 1103.81 879.848 1087.28 882.9 1070.64 882.625 1055.24 882.842 1039.87 881.078 1024.91 877.375L1024.91 914.125C1024.91 917.981 1028.04 921.107 1031.9 921.107Z" fill="#FFEBCC"/><path d="M1201.62 819.362 1251.11 868.849 1243.68 876.278C1239.58 880.377 1232.94 880.377 1228.84 876.278L1194.2 841.638C1190.1 837.538 1190.1 830.891 1194.2 826.791L1201.62 819.368Z" fill="#F6716F"/><path d="M1195.75 843.25 1210.5 828.34 1201.74 819.572 1194.18 826.765C1190.07 830.863 1190.07 837.511 1194.17 841.614 1194.17 841.617 1194.17 841.62 1194.18 841.622Z" fill="#F6A2A2"/><path d="M1205.2 852.647 1228.83 876.272C1232.92 880.375 1239.57 880.379 1243.67 876.281 1243.68 876.278 1243.68 876.275 1243.68 876.272L1251.08 868.87 1220.06 838Z" fill="#F0504D"/><path d="M1164.48 871.327 1199.12 905.961C1203.21 910.061 1203.21 916.708 1199.12 920.808L1191.69 928.237 1142.21 878.75 1149.63 871.327C1153.73 867.228 1160.38 867.228 1164.48 871.327Z" fill="#F6716F"/><path d="M1165.83 872.65 1164.25 871.337C1160.15 867.235 1153.5 867.231 1149.4 871.329 1149.4 871.332 1149.4 871.335 1149.39 871.337L1142.2 878.74 1150.97 887.508Z" fill="#F6A2A2"/><path d="M1175.48 882.362 1160.63 897.22 1191.71 928.247 1199.11 920.845C1203.21 916.747 1203.22 910.098 1199.12 905.996 1199.12 905.993 1199.11 905.99 1199.11 905.987Z" fill="#F0504D"/><path d="M1194.14 841.638 1228.78 876.278 1199.08 905.977 1164.44 871.337Z" fill="#F6716F"/><path d="M1194.15 841.622 1202.07 849.529 1172.37 879.228 1164.46 871.322Z" fill="#F6A2A2"/><path d="M1184.54 891.329 1214.23 861.625 1228.86 876.251 1199.16 905.951Z" fill="#F0504D"/><path d="M1118.1 746.388C1121 746.388 1123.35 744.037 1123.35 741.137 1123.35 738.238 1121 735.887 1118.1 735.887L1090.43 735.887C1087.54 735.887 1085.19 738.238 1085.19 741.137 1085.19 744.037 1087.54 746.388 1090.43 746.388ZM1147.87 765.655 1060.67 765.655C1057.77 765.655 1055.42 768.005 1055.42 770.905 1055.42 773.805 1057.77 776.155 1060.67 776.155L1147.87 776.155C1150.77 776.155 1153.12 773.805 1153.12 770.905 1153.12 768.005 1150.77 765.655 1147.87 765.655ZM1147.87 792.115 1060.67 792.115C1057.77 792.115 1055.42 794.465 1055.42 797.365 1055.42 800.265 1057.77 802.615 1060.67 802.615L1147.87 802.615C1150.77 802.615 1153.12 800.265 1153.12 797.365 1153.12 794.465 1150.77 792.115 1147.87 792.115ZM1254.81 865.143 1205.3 815.635C1203.26 813.599 1199.95 813.599 1197.9 815.635L1190.5 823.09C1185.82 827.803 1184.61 834.943 1187.45 840.94L1163.83 864.565C1157.83 861.716 1150.69 862.934 1145.98 867.61L1138.53 875.065C1136.49 877.113 1136.49 880.42 1138.53 882.468L1159.53 903.467 1138.53 924.467C1136.47 926.526 1136.47 929.864 1138.53 931.922 1140.58 933.981 1143.92 933.981 1145.98 931.922L1166.98 910.922 1187.98 931.922C1190.03 933.958 1193.33 933.958 1195.38 931.922L1202.84 924.467C1207.51 919.754 1208.73 912.615 1205.88 906.617L1229.51 882.992C1235.5 885.841 1242.64 884.623 1247.36 879.948L1254.81 872.492C1256.81 870.451 1256.81 867.184 1254.81 865.143ZM1195.38 917.117 1191.71 920.845 1149.71 878.845 1153.43 875.17C1155.48 873.134 1158.79 873.134 1160.84 875.17L1195.49 909.82C1197.43 911.883 1197.38 915.111 1195.38 917.117ZM1199.11 898.533 1171.92 871.337 1194.18 849.078 1221.37 876.272ZM1239.95 872.282C1237.91 874.318 1234.6 874.318 1232.55 872.282L1197.9 838C1195.87 835.952 1195.87 832.645 1197.9 830.597L1201.58 826.87 1243.58 868.87Z" fill="#3D3D63"/><path d="M1113.85 917.747 1031.9 917.747C1030.94 917.747 1030.17 916.972 1030.17 916.015L1030.17 719.665C1030.17 718.708 1030.94 717.932 1031.9 717.932L1176.64 717.932C1177.6 717.932 1178.37 718.708 1178.37 719.665L1178.37 796.892C1178.37 799.792 1180.72 802.142 1183.62 802.141 1186.52 802.14 1188.87 799.791 1188.87 796.892L1188.87 719.665C1188.87 712.909 1183.4 707.432 1176.64 707.432L1054 707.432 1055.26 693.1C1055.34 692.147 1056.18 691.441 1057.14 691.524 1057.14 691.524 1057.15 691.525 1057.15 691.525L1201.31 704.125C1202.27 704.208 1202.97 705.048 1202.89 706.001 1202.89 706.005 1202.89 706.01 1202.89 706.015L1195.54 790.015C1195.28 792.914 1197.42 795.477 1200.32 795.737 1203.22 795.999 1205.78 793.859 1206.04 790.96L1213.39 706.96C1213.99 700.231 1209.03 694.286 1202.3 693.681 1202.29 693.68 1202.27 693.679 1202.26 693.677L1058.15 681.077C1051.45 680.475 1045.53 685.418 1044.93 692.117 1044.92 692.147 1044.92 692.177 1044.92 692.208L1043.5 707.432 1031.9 707.432C1025.15 707.461 1019.69 712.921 1019.67 719.665L1019.67 916.015C1019.69 922.759 1025.15 928.219 1031.9 928.247L1113.85 928.247C1116.75 928.248 1119.1 925.898 1119.1 922.999 1119.1 920.099 1116.75 917.748 1113.85 917.747 1113.85 917.747 1113.85 917.747 1113.85 917.747Z" fill="#3D3D63"/></g></g></g><text font-family="Arial,Arial_MSFontService,sans-serif" font-weight="700" font-size="55" transform="matrix(1 0 0 1 1003.49 1010)">DID Doc</text><g><g><g><path d="M1856.89 877.156 1793.11 877.156C1786.34 877.156 1780.84 871.665 1780.84 864.891L1780.84 801.109C1780.84 794.336 1786.34 788.844 1793.11 788.844L1856.89 788.844C1863.66 788.844 1869.16 794.336 1869.16 801.109L1869.16 864.891C1869.16 871.665 1863.66 877.156 1856.89 877.156Z" fill="#FFD740"/><path d="M1856.89 879.609 1793.11 879.609C1784.99 879.609 1778.39 873.006 1778.39 864.891L1778.39 801.109C1778.39 792.995 1784.99 786.391 1793.11 786.391L1856.89 786.391C1865.01 786.391 1871.61 792.995 1871.61 801.109L1871.61 864.891C1871.61 873.006 1865.01 879.609 1856.89 879.609ZM1793.11 791.297C1787.7 791.297 1783.3 795.698 1783.3 801.109L1783.3 864.891C1783.3 870.302 1787.7 874.703 1793.11 874.703L1856.89 874.703C1862.3 874.703 1866.7 870.302 1866.7 864.891L1866.7 801.109C1866.7 795.698 1862.3 791.297 1856.89 791.297L1793.11 791.297Z" fill="#263238"/><path d="M1844.62 739.781 1805.38 739.781C1802.67 739.781 1800.47 737.585 1800.47 734.875L1800.47 695.625C1800.47 692.916 1802.67 690.719 1805.38 690.719L1844.62 690.719C1847.33 690.719 1849.53 692.916 1849.53 695.625L1849.53 734.875C1849.53 737.585 1847.33 739.781 1844.62 739.781Z" fill="#40C4FF"/><path d="M1844.62 742.234 1805.38 742.234C1801.32 742.234 1798.02 738.933 1798.02 734.875L1798.02 695.625C1798.02 691.568 1801.32 688.266 1805.38 688.266L1844.62 688.266C1848.68 688.266 1851.98 691.568 1851.98 695.625L1851.98 734.875C1851.98 738.933 1848.68 742.234 1844.62 742.234ZM1805.38 693.172C1804.02 693.172 1802.92 694.27 1802.92 695.625L1802.92 734.875C1802.92 736.23 1804.02 737.328 1805.38 737.328L1844.62 737.328C1845.98 737.328 1847.08 736.23 1847.08 734.875L1847.08 695.625C1847.08 694.27 1845.98 693.172 1844.62 693.172L1805.38 693.172Z" fill="#263238"/><path d="M1844.62 975.281 1805.38 975.281C1802.67 975.281 1800.47 973.085 1800.47 970.375L1800.47 931.125C1800.47 928.415 1802.67 926.219 1805.38 926.219L1844.62 926.219C1847.33 926.219 1849.53 928.415 1849.53 931.125L1849.53 970.375C1849.53 973.085 1847.33 975.281 1844.62 975.281Z" fill="#40C4FF"/><path d="M1844.62 977.734 1805.38 977.734C1801.32 977.734 1798.02 974.432 1798.02 970.375L1798.02 931.125C1798.02 927.068 1801.32 923.766 1805.38 923.766L1844.62 923.766C1848.68 923.766 1851.98 927.068 1851.98 931.125L1851.98 970.375C1851.98 974.432 1848.68 977.734 1844.62 977.734ZM1805.38 928.672C1804.02 928.672 1802.92 929.77 1802.92 931.125L1802.92 970.375C1802.92 971.73 1804.02 972.828 1805.38 972.828L1844.62 972.828C1845.98 972.828 1847.08 971.73 1847.08 970.375L1847.08 931.125C1847.08 929.77 1845.98 928.672 1844.62 928.672L1805.38 928.672Z" fill="#263238"/><path d="M1918.22 852.625 1918.22 813.375C1918.22 810.665 1920.42 808.469 1923.12 808.469L1962.38 808.469C1965.08 808.469 1967.28 810.665 1967.28 813.375L1967.28 852.625C1967.28 855.335 1965.08 857.531 1962.38 857.531L1923.12 857.531C1920.42 857.531 1918.22 855.335 1918.22 852.625Z" fill="#40C4FF"/><path d="M1962.38 859.984 1923.12 859.984C1919.07 859.984 1915.77 856.683 1915.77 852.625L1915.77 813.375C1915.77 809.318 1919.07 806.016 1923.12 806.016L1962.38 806.016C1966.43 806.016 1969.73 809.318 1969.73 813.375L1969.73 852.625C1969.73 856.683 1966.43 859.984 1962.38 859.984ZM1923.12 810.922C1921.77 810.922 1920.67 812.02 1920.67 813.375L1920.67 852.625C1920.67 853.98 1921.77 855.078 1923.12 855.078L1962.38 855.078C1963.73 855.078 1964.83 853.98 1964.83 852.625L1964.83 813.375C1964.83 812.02 1963.73 810.922 1962.38 810.922L1923.12 810.922Z" fill="#263238"/><path d="M1682.72 852.625 1682.72 813.375C1682.72 810.665 1684.92 808.469 1687.62 808.469L1726.87 808.469C1729.58 808.469 1731.78 810.665 1731.78 813.375L1731.78 852.625C1731.78 855.335 1729.58 857.531 1726.87 857.531L1687.62 857.531C1684.92 857.531 1682.72 855.335 1682.72 852.625Z" fill="#40C4FF"/><path d="M1726.87 859.984 1687.62 859.984C1683.57 859.984 1680.27 856.683 1680.27 852.625L1680.27 813.375C1680.27 809.318 1683.57 806.016 1687.62 806.016L1726.87 806.016C1730.93 806.016 1734.23 809.318 1734.23 813.375L1734.23 852.625C1734.23 856.683 1730.93 859.984 1726.87 859.984ZM1687.62 810.922C1686.27 810.922 1685.17 812.02 1685.17 813.375L1685.17 852.625C1685.17 853.98 1686.27 855.078 1687.62 855.078L1726.87 855.078C1728.23 855.078 1729.33 853.98 1729.33 852.625L1729.33 813.375C1729.33 812.02 1728.23 810.922 1726.87 810.922L1687.62 810.922ZM1712.06 796.203C1710.71 796.2 1709.61 795.098 1709.61 793.74 1709.61 793.471 1709.66 793.205 1709.74 792.95 1710.94 789.467 1712.33 785.993 1713.85 782.628 1714.48 781.427 1715.97 780.966 1717.17 781.599 1718.27 782.179 1718.76 783.491 1718.32 784.654 1716.85 787.889 1715.54 791.192 1714.38 794.55 1714.04 795.541 1713.11 796.206 1712.06 796.203ZM1720.94 776.573C1719.58 776.574 1718.48 775.477 1718.48 774.121 1718.48 773.696 1718.59 773.278 1718.8 772.908 1729.7 753.725 1745.65 737.9 1764.92 727.158 1766.12 726.529 1767.61 726.993 1768.23 728.193 1768.84 729.349 1768.43 730.775 1767.31 731.441 1748.82 741.746 1733.52 756.928 1723.06 775.332 1722.63 776.101 1721.82 776.576 1720.94 776.573ZM1775.94 726.868C1774.58 726.866 1773.49 725.766 1773.49 724.411 1773.49 723.442 1774.06 722.566 1774.95 722.173 1778.21 720.735 1781.58 719.425 1784.96 718.287 1786.23 717.806 1787.65 718.444 1788.13 719.71 1788.61 720.977 1787.97 722.393 1786.71 722.874 1786.65 722.896 1786.59 722.916 1786.53 722.933 1783.27 724.031 1780.07 725.275 1776.92 726.662 1776.61 726.797 1776.28 726.868 1775.94 726.868ZM1930.64 883.176C1929.28 883.175 1928.18 882.075 1928.19 880.72 1928.19 880.373 1928.26 880.029 1928.4 879.713 1929.86 876.504 1931.19 873.172 1932.34 869.817 1932.8 868.539 1934.2 867.87 1935.47 868.322 1936.74 868.769 1937.41 870.15 1936.98 871.421 1935.77 874.914 1934.39 878.388 1932.87 881.739 1932.47 882.616 1931.6 883.178 1930.64 883.176ZM1880.61 937.523C1879.25 937.521 1878.16 936.421 1878.16 935.066 1878.16 934.18 1878.64 933.364 1879.41 932.931 1897.9 922.623 1913.2 907.44 1923.66 889.034 1924.33 887.856 1925.83 887.443 1927.01 888.112 1928.18 888.781 1928.6 890.279 1927.93 891.458 1917.03 910.643 1901.08 926.469 1881.81 937.214 1881.44 937.414 1881.03 937.52 1880.61 937.523ZM1860.98 946.212C1859.62 946.206 1858.53 945.103 1858.53 943.749 1858.54 942.704 1859.2 941.776 1860.19 941.438 1863.45 940.338 1866.65 939.093 1869.8 937.709 1871.04 937.163 1872.49 937.725 1873.03 938.965 1873.58 940.205 1873.02 941.652 1871.78 942.198 1868.5 943.641 1865.13 944.951 1861.76 946.084 1861.51 946.17 1861.24 946.213 1860.98 946.212ZM1871.9 727.359C1871.56 727.359 1871.21 727.286 1870.89 727.143 1867.66 725.677 1864.36 724.362 1861 723.203 1859.73 722.728 1859.09 721.314 1859.56 720.045 1860.02 718.824 1861.35 718.174 1862.6 718.567 1866.08 719.774 1869.55 721.152 1872.91 722.673 1874.15 723.235 1874.69 724.69 1874.13 725.923 1873.73 726.795 1872.86 727.356 1871.9 727.359ZM1926.25 777.393C1925.36 777.394 1924.54 776.913 1924.11 776.137 1913.8 757.648 1898.62 742.342 1880.21 731.887 1879.04 731.218 1878.62 729.72 1879.29 728.541 1879.96 727.362 1881.46 726.949 1882.64 727.619 1901.82 738.516 1917.65 754.468 1928.39 773.738 1929.05 774.918 1928.63 776.414 1927.45 777.078 1927.09 777.284 1926.67 777.393 1926.25 777.393ZM1934.94 797.023C1933.89 797.022 1932.96 796.351 1932.62 795.354 1931.52 792.098 1930.28 788.893 1928.89 785.748 1928.37 784.498 1928.96 783.061 1930.21 782.539 1931.42 782.031 1932.82 782.575 1933.38 783.771 1934.82 787.043 1936.13 790.414 1937.26 793.789 1937.7 795.074 1937 796.464 1935.72 796.895 1935.47 796.979 1935.21 797.022 1934.94 797.023ZM1784.93 945.937C1784.66 945.936 1784.39 945.891 1784.13 945.805 1780.63 944.596 1777.19 943.224 1773.81 941.693 1772.58 941.133 1772.03 939.679 1772.59 938.445 1773.15 937.211 1774.61 936.664 1775.84 937.224 1779.07 938.689 1782.37 940.004 1785.73 941.163 1787.01 941.618 1787.68 943.024 1787.22 944.303 1786.88 945.274 1785.96 945.927 1784.93 945.937ZM1765.3 937.062C1764.88 937.06 1764.46 936.951 1764.09 936.743 1744.9 925.846 1729.08 909.894 1718.33 890.624 1717.64 889.459 1718.03 887.954 1719.19 887.263 1720.36 886.571 1721.86 886.956 1722.55 888.121 1722.58 888.158 1722.6 888.196 1722.62 888.235 1732.92 906.723 1748.11 922.029 1766.51 932.484 1767.69 933.153 1768.1 934.65 1767.44 935.828 1767.44 935.829 1767.44 935.83 1767.43 935.83 1766.99 936.592 1766.18 937.062 1765.3 937.062ZM1715.6 882.063C1714.62 882.064 1713.74 881.49 1713.35 880.601 1711.9 877.32 1710.61 873.978 1709.46 870.582 1708.98 869.315 1709.62 867.899 1710.89 867.418 1712.15 866.937 1713.57 867.574 1714.05 868.841 1714.07 868.899 1714.09 868.958 1714.11 869.017 1715.2 872.26 1716.46 875.488 1717.84 878.623 1718.38 879.864 1717.82 881.311 1716.58 881.856 1716.27 881.991 1715.93 882.062 1715.6 882.063ZM1780.84 835.453 1741.59 835.453C1740.24 835.453 1739.14 834.355 1739.14 833 1739.14 831.645 1740.24 830.547 1741.59 830.547L1780.84 830.547C1782.2 830.547 1783.3 831.645 1783.3 833 1783.3 834.355 1782.2 835.453 1780.84 835.453ZM1908.41 835.453 1869.16 835.453C1867.8 835.453 1866.7 834.355 1866.7 833 1866.7 831.645 1867.8 830.547 1869.16 830.547L1908.41 830.547C1909.76 830.547 1910.86 831.645 1910.86 833 1910.86 834.355 1909.76 835.453 1908.41 835.453Z" fill="#263238"/><path d="M1825 791.297C1823.65 791.297 1822.55 790.199 1822.55 788.844L1822.55 749.594C1822.55 748.239 1823.65 747.141 1825 747.141 1826.35 747.141 1827.45 748.239 1827.45 749.594L1827.45 788.844C1827.45 790.199 1826.35 791.297 1825 791.297Z" fill="#263238"/><path d="M1825 918.859C1823.65 918.859 1822.55 917.761 1822.55 916.406L1822.55 877.156C1822.55 875.802 1823.65 874.703 1825 874.703 1826.35 874.703 1827.45 875.802 1827.45 877.156L1827.45 916.406C1827.45 917.761 1826.35 918.859 1825 918.859Z" fill="#263238"/><path d="M1847.08 818.281 1820.09 818.281C1818.74 818.281 1817.64 817.183 1817.64 815.828 1817.64 814.474 1818.74 813.375 1820.09 813.375L1847.08 813.375C1848.43 813.375 1849.53 814.474 1849.53 815.828 1849.53 817.183 1848.43 818.281 1847.08 818.281Z" fill="#263238"/><path d="M1847.08 835.453 1802.92 835.453C1801.57 835.453 1800.47 834.355 1800.47 833 1800.47 831.645 1801.57 830.547 1802.92 830.547L1847.08 830.547C1848.43 830.547 1849.53 831.645 1849.53 833 1849.53 834.355 1848.43 835.453 1847.08 835.453Z" fill="#263238"/><path d="M1847.08 852.625 1802.92 852.625C1801.57 852.625 1800.47 851.527 1800.47 850.172 1800.47 848.817 1801.57 847.719 1802.92 847.719L1847.08 847.719C1848.43 847.719 1849.53 848.817 1849.53 850.172 1849.53 851.527 1848.43 852.625 1847.08 852.625Z" fill="#263238"/></g></g></g><text font-family="Arial,Arial_MSFontService,sans-serif" font-weight="700" font-size="55" transform="matrix(1 0 0 1 1687.76 1042)">Blockchain</text><text font-family="Segoe UI,Segoe UI_MSFontService,sans-serif" font-weight="700" font-size="55" transform="matrix(1 0 0 1 1683.59 1674)">LocalGuard </text><text font-family="Segoe UI,Segoe UI_MSFontService,sans-serif" font-weight="700" font-size="55" transform="matrix(1 0 0 1 1762.88 1739)">Vault</text><path d="M1303.06 1276.44 1616.36 1435.81 1613.24 1441.94 1299.94 1282.56ZM1616.95 1424.54 1635.23 1449.26 1604.48 1449.05Z" fill="#747474"/><path d="M1319.5 830.063 1605.9 830.063 1605.9 836.938 1319.5 836.938ZM1601.32 819.75 1628.82 833.5 1601.32 847.25Z" fill="#747474"/><path d="M1.4501-3.11667 315.803 143.143 312.903 149.376-1.4501 3.11667ZM315.997 131.859 335.13 155.927 304.397 156.793Z" fill="#747474" transform="matrix(1 0 0 -1 1300.5 1685.43)"/></g></svg>